<svg width="24" height="24" viewBox="0 0 24 24" fill="none" xmlns="http://www.w3.org/2000/svg">
<path fill-rule="evenodd" clip-rule="evenodd" d="M2.83447 23.0561L22.9427 2.91866C23.4625 2.39806 23.461 1.54986 22.9393 1.02739C22.4176 0.504929 21.5706 0.503413 21.0508 1.02401L0.942572 21.1614C0.422729 21.682 0.424244 22.5302 0.94595 23.0527C1.46766 23.5751 2.31463 23.5767 2.83447 23.0561Z" fill="#F1F3F6"/>
<path fill-rule="evenodd" clip-rule="evenodd" d="M1.05726 2.83859L21.1655 22.976C21.6853 23.4966 22.5323 23.4951 23.054 22.9726C23.5757 22.4501 23.5772 21.6019 23.0574 21.0813L2.94916 0.943941C2.42932 0.423343 1.58235 0.42486 1.06064 0.947324C0.538936 1.46979 0.53742 2.31799 1.05726 2.83859Z" fill="#F1F3F6"/>
</svg>
