<svg width="47" height="48" viewBox="0 0 47 48" fill="none" xmlns="http://www.w3.org/2000/svg">
<path d="M15.5843 26.4868H5.50227C2.46345 26.4868 0 28.9502 0 31.989V42.0711C0 45.1099 2.46345 47.5734 5.50227 47.5734H15.5843C18.6231 47.5734 21.0866 45.1099 21.0866 42.0711V31.989C21.0866 28.9502 18.6231 26.4868 15.5843 26.4868Z" fill="#F1F1F1"/>
<path d="M17.9895 3.52288C19.9005 5.43385 21.0866 8.06962 21.0866 10.9855C21.0866 16.8173 16.3586 21.5288 10.5433 21.5288C7.6274 21.5288 4.99158 20.3427 3.08061 18.4317C1.16964 16.5208 0 13.8849 0 10.969C0 5.13726 4.728 0.425781 10.5433 0.425781C13.4592 0.425781 16.095 1.61191 18.006 3.52288H17.9895Z" fill="#F1F1F1"/>
<path d="M46.9997 10.969C46.9997 16.8008 42.2717 21.5123 36.4564 21.5123H31.4154C28.3677 21.5123 25.9131 19.0413 25.9131 15.9936V5.92801C25.9131 2.88034 28.3842 0.425781 31.4154 0.425781H36.4564C39.3722 0.425781 42.0081 1.61191 43.919 3.52288C45.83 5.43385 46.9997 8.06962 46.9997 10.9855V10.969Z" fill="#F1F1F1"/>
<path d="M46.9997 31.9896C46.9997 40.589 40.0312 47.574 31.4154 47.574C28.3677 47.574 25.9131 45.1029 25.9131 42.0717V32.0061C25.9131 28.9585 28.3842 26.5039 31.4154 26.5039H41.4809C42.9965 26.5039 44.3803 27.1134 45.3852 28.1183C46.3737 29.1067 46.9997 30.4905 46.9997 32.0061V31.9896Z" fill="#F1F1F1"/>
</svg>
