<svg width="153" height="76" viewBox="0 0 153 76" fill="none" xmlns="http://www.w3.org/2000/svg">
<path d="M66.0183 17.1497C64.9325 16.5961 63.6976 16.3193 62.3137 16.3193H56.9696C55.756 16.3193 54.7554 17.2987 54.7554 18.5336V33.3309C54.7554 34.5445 55.7347 35.5452 56.9696 35.5452C58.1832 35.5452 59.1838 34.5658 59.1838 33.3309V31.6915C59.1838 30.4779 60.1633 29.4773 61.3982 29.4773H62.4627C63.8254 29.4773 65.0602 29.2005 66.1248 28.6256C67.1893 28.0507 68.0196 27.2843 68.6158 26.2836C69.2119 25.2829 69.5101 24.1545 69.5101 22.8983C69.5101 21.6421 69.212 20.4498 68.5946 19.4704C67.9772 18.491 67.1255 17.7246 66.0609 17.171L66.0183 17.1497ZM64.2298 24.708C63.7614 25.1764 63.1228 25.4107 62.335 25.4107H60.4401C59.7375 25.4107 59.1838 24.8571 59.1838 24.1545V21.6208C59.1838 20.9182 59.7375 20.3646 60.4401 20.3646H62.2073C63.0376 20.3646 63.6976 20.5988 64.1873 21.0672C64.6983 21.5356 64.9325 22.1531 64.9325 22.8983C64.9325 23.6435 64.6982 24.2609 64.2085 24.7293L64.2298 24.708Z" fill="#949494"/>
<path d="M75.4289 18.4697C75.4289 17.2821 74.4709 16.3193 73.2892 16.3193C72.1074 16.3193 71.1494 17.2821 71.1494 18.4697V33.3948C71.1494 34.5825 72.1074 35.5452 73.2892 35.5452C74.4709 35.5452 75.4289 34.5825 75.4289 33.3948V18.4697Z" fill="#949494"/>
<path d="M88.9698 35.5453C89.7576 35.5453 90.3964 34.9065 90.4177 34.1188L90.4602 27.8805C90.4602 26.5817 90.2048 25.4533 89.7151 24.4952C89.2254 23.5371 88.4801 22.7919 87.5007 22.2809C86.5213 21.7486 85.3078 21.4932 83.8813 21.4932C82.8381 21.4932 81.9225 21.6635 81.1347 21.9829C80.3469 22.3022 79.6869 22.7493 79.1546 23.3029C78.3881 24.0907 78.7076 25.4107 79.7508 25.7514L79.8573 25.7939C80.7941 26.092 81.7947 25.9217 82.6251 25.4107C83.0083 25.1765 83.4554 25.0488 83.9664 25.0488C84.6265 25.0488 85.1162 25.1978 85.4568 25.5172C85.7762 25.8365 86.0104 26.2624 86.1382 26.8159C86.202 27.114 85.9678 27.3908 85.6697 27.3908H82.9019C81.2199 27.3908 79.8998 27.7527 78.9843 28.4553C78.0474 29.1792 77.5791 30.2438 77.5791 31.6916C77.5791 33.0329 78.0262 34.0549 78.9205 34.8001C79.8147 35.524 81.0708 35.9072 82.7102 35.9072C84.3496 35.9072 85.4781 35.3963 86.2446 34.3956C86.2872 34.3317 86.3298 34.2678 86.3937 34.1826C86.4149 34.9491 87.0537 35.5666 87.8414 35.5666H89.0337L88.9698 35.5453ZM85.9465 31.3722C85.7123 31.7555 85.3929 32.0535 85.0097 32.2877C84.6051 32.5219 84.1368 32.6284 83.6045 32.6284C83.0722 32.6284 82.6677 32.522 82.3483 32.3303C82.0502 32.1387 81.9013 31.8832 81.9013 31.5425C81.9013 31.0954 82.0928 30.7335 82.4973 30.478C82.9019 30.2225 83.5619 30.0948 84.4774 30.0948H85.2439C85.8826 30.0948 86.2872 30.7974 85.9678 31.3509L85.9465 31.3722Z" fill="#949494"/>
<path d="M104.044 35.5451C105.237 35.5451 106.195 34.587 106.195 33.3947V27.71C106.195 26.2835 106.003 25.1125 105.641 24.1969C105.258 23.2814 104.704 22.6001 103.959 22.153C103.214 21.7059 102.277 21.4717 101.191 21.4717C100.191 21.4717 99.2963 21.7272 98.5511 22.2595C98.4021 22.3659 98.2318 22.4937 98.1041 22.6214C97.7634 22.9195 97.2312 22.7279 97.1886 22.2808C97.1673 21.9827 96.9331 21.7911 96.6563 21.7911H93.6329C93.3348 21.7911 93.1006 22.0253 93.1006 22.3233V33.3734C93.1006 34.5657 94.0587 35.5238 95.251 35.5238C96.4433 35.5238 97.4014 34.5657 97.4014 33.3734V28.2635C97.4014 27.3054 97.6143 26.6028 98.0401 26.1344C98.466 25.666 99.0834 25.4531 99.9138 25.4531C100.361 25.4531 100.723 25.5809 101.021 25.7725C101.319 25.9641 101.553 26.2835 101.724 26.7093C101.894 27.1351 101.979 27.7313 101.979 28.4552V33.3521C101.979 34.5444 102.937 35.5025 104.129 35.5025L104.044 35.5451Z" fill="#949494"/>
<path d="M117.266 35.119C117.628 35.119 117.926 34.821 117.926 34.459V28.8382C117.926 27.5607 117.756 26.4961 117.415 25.6445C117.075 24.7928 116.564 24.1754 115.861 23.7496C115.18 23.3238 114.307 23.1108 113.264 23.1108C112.646 23.1108 112.071 23.196 111.56 23.3876C111.049 23.558 110.581 23.8347 110.176 24.1967C109.942 24.3883 109.75 24.6225 109.538 24.878C109.261 25.2187 109.389 25.7296 109.793 25.9212C110.091 26.049 110.432 25.9425 110.623 25.687C110.879 25.3251 111.177 25.0483 111.518 24.8567C111.986 24.5799 112.582 24.4309 113.285 24.4309C114.051 24.4309 114.669 24.6012 115.137 24.9206C115.606 25.24 115.967 25.7296 116.18 26.3897C116.287 26.709 116.372 27.0497 116.436 27.4542C116.5 27.8587 116.202 28.1994 115.776 28.1994H113.029C111.645 28.1994 110.581 28.5188 109.814 29.1575C109.048 29.7962 108.665 30.6905 108.665 31.8402C108.665 32.9899 109.048 33.8416 109.814 34.4803C110.581 35.119 111.667 35.4384 113.029 35.4384C114.392 35.4384 115.435 34.9487 116.202 33.9906C116.329 33.8416 116.436 33.6712 116.521 33.5222L116.585 34.5442C116.606 34.8848 116.904 35.1616 117.245 35.1616L117.266 35.119ZM116.095 32.3086C115.818 32.9047 115.414 33.3519 114.86 33.6499C114.328 33.948 113.668 34.0971 112.923 34.0971C112.007 34.0971 111.305 33.8841 110.794 33.4796C110.283 33.0751 110.027 32.5215 110.027 31.7976C110.027 31.0737 110.283 30.4563 110.772 30.0517C111.262 29.6472 112.071 29.4343 113.2 29.4343H115.84C116.202 29.4343 116.5 29.7324 116.5 30.0943C116.5 30.9673 116.351 31.7124 116.074 32.2873L116.095 32.3086Z" fill="#949494"/>
<path d="M130.19 35.1197C130.573 35.1197 130.892 34.8003 130.892 34.4171V29.1156V28.5833C130.892 27.2633 130.722 26.22 130.318 25.4323C129.913 24.6445 129.381 24.0484 128.678 23.6864C127.975 23.3245 127.188 23.1328 126.272 23.1328C125.272 23.1328 124.42 23.367 123.739 23.8567C123.568 23.9845 123.398 24.1122 123.249 24.24C122.93 24.538 122.418 24.3464 122.418 23.9206C122.418 23.6225 122.184 23.4096 121.908 23.4096H121.588C121.311 23.4096 121.077 23.6438 121.077 23.9206V34.4171C121.077 34.8003 121.397 35.1197 121.78 35.1197C122.163 35.1197 122.482 34.8003 122.482 34.4171V29.0943C122.482 27.6252 122.802 26.4755 123.419 25.6665C124.037 24.8361 124.91 24.4316 126.017 24.4316C126.677 24.4316 127.252 24.5593 127.784 24.7935C128.316 25.0277 128.721 25.4961 129.019 26.1561C129.317 26.8375 129.466 27.8169 129.466 29.1156V34.4171C129.466 34.8003 129.785 35.1197 130.168 35.1197H130.19Z" fill="#949494"/>
<path d="M142.773 19.4272V23.8983C142.773 24.388 142.177 24.6648 141.815 24.3242C141.644 24.1751 141.474 24.0261 141.282 23.8983C140.516 23.3661 139.643 23.1106 138.642 23.1106C137.642 23.1106 136.705 23.3661 135.896 23.8983C135.108 24.4306 134.469 25.1332 134.022 26.07C133.575 26.9856 133.341 28.0501 133.341 29.2637C133.341 30.4773 133.575 31.4993 134.022 32.4361C134.469 33.3729 135.108 34.0968 135.896 34.6078C136.684 35.14 137.599 35.3956 138.642 35.3956C139.686 35.3956 140.516 35.14 141.282 34.6078C141.474 34.48 141.666 34.3097 141.857 34.1607C142.219 33.82 142.815 34.0329 142.837 34.5439C142.837 34.8845 143.092 35.1188 143.411 35.1188H143.603C143.923 35.1188 144.178 34.8633 144.178 34.5439V19.4272C144.178 19.044 143.859 18.7246 143.475 18.7246C143.092 18.7246 142.773 19.044 142.773 19.4272ZM140.92 33.5219C140.346 33.9265 139.686 34.1394 138.94 34.1394C138.131 34.1394 137.407 33.9265 136.79 33.5219C136.173 33.1174 135.683 32.5425 135.321 31.7974C134.959 31.0735 134.789 30.2218 134.789 29.2637C134.789 28.3056 134.959 27.4752 135.321 26.7301C135.662 26.0062 136.151 25.4313 136.79 25.0055C137.407 24.601 138.131 24.3881 138.94 24.3881C139.707 24.3881 140.367 24.601 140.963 25.0055C141.538 25.41 141.985 25.9849 142.326 26.7301C142.645 27.454 142.815 28.3056 142.815 29.2637C142.815 30.2218 142.645 31.0522 142.326 31.7974C142.006 32.5212 141.538 33.0961 140.963 33.5219H140.92Z" fill="#949494"/>
<path d="M66.0183 40.3138C64.9325 39.7602 63.6976 39.4834 62.3137 39.4834H56.9696C55.756 39.4834 54.7554 40.4628 54.7554 41.6977V56.495C54.7554 57.7086 55.7347 58.7093 56.9696 58.7093C58.1832 58.7093 59.1838 57.7299 59.1838 56.495V54.8556C59.1838 53.642 60.1633 52.6413 61.3982 52.6413H62.4627C63.8254 52.6413 65.0602 52.3645 66.1248 51.7897C67.1893 51.2148 68.0196 50.4483 68.6158 49.4476C69.2119 48.4469 69.5101 47.3185 69.5101 46.0623C69.5101 44.8062 69.212 43.6139 68.5946 42.6345C67.9772 41.6551 67.1255 40.8886 66.0609 40.335L66.0183 40.3138ZM64.2298 47.8721C63.7614 48.3405 63.1228 48.5747 62.335 48.5747H60.5252C59.78 48.5747 59.1838 47.9786 59.1838 47.2334V44.87C59.1838 44.1249 59.78 43.5287 60.5252 43.5287H62.2073C63.0376 43.5287 63.6976 43.7629 64.1873 44.2313C64.6983 44.6997 64.9325 45.3172 64.9325 46.0623C64.9325 46.8075 64.6982 47.425 64.2085 47.8934L64.2298 47.8721Z" fill="#949494"/>
<path d="M80.198 52.216C80.198 53.1528 79.9851 53.8554 79.5593 54.3238C79.1335 54.7923 78.516 55.0265 77.6857 55.0265C77.2599 55.0265 76.898 54.8987 76.5786 54.7071C76.2593 54.5155 76.025 54.1748 75.8547 53.749C75.6843 53.3019 75.5992 52.727 75.5992 52.0244V47.1274C75.5992 45.9351 74.6411 44.9771 73.4488 44.9771C72.2565 44.9771 71.2983 45.9351 71.2983 47.1274V52.8122C71.2983 54.2387 71.49 55.4097 71.8519 56.3252C72.2352 57.2407 72.7887 57.922 73.5339 58.3691C74.2791 58.8163 75.216 59.0505 76.3018 59.0505C77.3025 59.0505 78.1967 58.795 78.9419 58.2627C79.1122 58.1562 79.2612 58.0285 79.4102 57.8795C79.7296 57.5814 80.262 57.7943 80.3046 58.2201C80.3259 58.5182 80.5601 58.7098 80.8368 58.7098H83.8388C84.1369 58.7098 84.3711 58.4756 84.3711 58.1775V47.1274C84.3711 45.9351 83.413 44.9771 82.2207 44.9771C81.0284 44.9771 80.0703 45.9351 80.0703 47.1274V52.2373L80.198 52.216Z" fill="#949494"/>
<path d="M107.621 41.6338C107.621 40.4462 106.663 39.4834 105.481 39.4834C104.299 39.4834 103.341 40.4462 103.341 41.6338V56.5588C103.341 57.7465 104.299 58.7093 105.481 58.7093C106.663 58.7093 107.621 57.7465 107.621 56.5588V41.6338Z" fill="#949494"/>
<path d="M112.795 38.3765C112.156 38.3765 111.581 38.6107 111.113 39.0791C110.623 39.5475 110.389 40.1223 110.389 40.8037C110.389 41.4424 110.623 42.0173 111.113 42.4857C111.602 42.9754 112.156 43.2096 112.795 43.2096C113.433 43.2096 114.03 42.9754 114.498 42.4857C114.966 41.996 115.222 41.4424 115.222 40.8037C115.222 40.1223 114.988 39.5475 114.498 39.0791C114.03 38.6107 113.455 38.3765 112.795 38.3765Z" fill="#949494"/>
<path d="M114.945 47.1274C114.945 45.9398 113.987 44.9771 112.805 44.9771C111.624 44.9771 110.666 45.9398 110.666 47.1274V56.5594C110.666 57.747 111.624 58.7098 112.805 58.7098C113.987 58.7098 114.945 57.747 114.945 56.5594V47.1274Z" fill="#949494"/>
<path d="M127.358 51.3221C126.762 50.875 126.059 50.5344 125.186 50.3214L123.739 49.9595C123.228 49.8318 122.844 49.6827 122.568 49.5337C122.312 49.3846 122.163 49.193 122.163 48.9801C122.163 48.682 122.27 48.4478 122.483 48.2775C122.695 48.1072 123.015 48.022 123.419 48.022C123.888 48.022 124.335 48.1285 124.718 48.3201C124.846 48.3839 124.974 48.4478 125.059 48.533C125.442 48.8524 125.932 48.9588 126.4 48.7672L127.401 48.3627C128.316 47.9794 128.529 46.7871 127.805 46.1058C127.294 45.6374 126.677 45.2754 125.932 45.0199C125.187 44.7644 124.335 44.6367 123.355 44.6367C121.631 44.6367 120.289 45.0199 119.31 45.7864C118.331 46.5529 117.862 47.6387 117.862 49.044C117.862 50.0446 118.203 50.9389 118.884 51.6841C119.566 52.4506 120.545 52.9828 121.844 53.3235L123.015 53.6216C123.505 53.7493 123.888 53.8983 124.165 54.0687C124.42 54.239 124.569 54.4732 124.569 54.75C124.569 55.0268 124.441 55.2397 124.186 55.3887C123.93 55.5378 123.568 55.6229 123.121 55.6229C122.717 55.6229 122.312 55.5165 121.908 55.3249C121.737 55.2397 121.482 55.0694 121.333 54.9203C120.928 54.5158 120.311 54.4306 119.779 54.6648L118.991 55.0055C117.99 55.4313 117.735 56.7727 118.565 57.4753C119.14 57.965 119.8 58.3269 120.588 58.6037C121.375 58.8592 122.206 59.0082 123.1 59.0082C124.271 59.0082 125.314 58.8379 126.209 58.4972C127.103 58.1566 127.805 57.6669 128.316 57.0281C128.827 56.3894 129.061 55.6442 129.061 54.7926C129.061 54.1113 128.912 53.4725 128.614 52.8764C128.316 52.2802 127.89 51.7693 127.294 51.3008L127.358 51.3221Z" fill="#949494"/>
<path d="M142.07 45.3173C141.325 44.8701 140.388 44.636 139.26 44.636C138.28 44.636 137.407 44.8914 136.641 45.4237C136.151 45.7644 135.491 45.4237 135.491 44.8276V41.5913C135.491 40.399 134.533 39.4409 133.341 39.4409C132.149 39.4409 131.19 40.399 131.19 41.5913V56.5377C131.19 57.73 132.149 58.6881 133.341 58.6881C134.533 58.6881 135.491 57.73 135.491 56.5377V51.4278C135.491 50.4697 135.704 49.7671 136.13 49.2987C136.556 48.8303 137.173 48.6174 138.004 48.6174C138.429 48.6174 138.791 48.7451 139.111 48.9368C139.43 49.1284 139.664 49.4477 139.835 49.8736C140.005 50.2994 140.09 50.8955 140.09 51.6194V56.5164C140.09 57.7087 141.048 58.6668 142.241 58.6668C143.433 58.6668 144.391 57.7087 144.391 56.5164V50.8317C144.391 49.4052 144.199 48.2341 143.837 47.3186C143.454 46.4031 142.901 45.7218 142.155 45.2747L142.07 45.3173Z" fill="#949494"/>
<path d="M100.212 55.8783C100.829 54.8989 101.127 53.7492 101.127 52.4504C101.127 51.1943 100.829 50.0658 100.233 49.0652C99.6369 48.0645 98.8064 47.2767 97.7419 46.7231C96.6773 46.1483 95.4638 45.8715 94.0799 45.8715H91.9721C91.5675 45.8715 91.2268 45.5521 91.2268 45.1263V41.9965C91.2268 40.7829 90.2475 39.7822 89.0126 39.7822C87.799 39.7822 86.7983 40.7616 86.7983 41.9965V56.7938C86.7983 58.0074 87.7777 59.0081 89.0126 59.0081H93.9095C95.2934 59.0081 96.5283 58.7313 97.6141 58.1777C98.7 57.6242 99.5303 56.8577 100.148 55.8783H100.212ZM97.0394 52.4717C97.0394 53.2169 96.7838 53.8343 96.2941 54.3027C95.7831 54.7712 95.1231 55.0054 94.314 55.0054H92.6321C91.8869 55.0054 91.2907 54.4092 91.2907 53.664V51.3007C91.2907 50.5555 91.8869 49.9594 92.6321 49.9594H94.4418C95.2295 49.9594 95.8683 50.1936 96.3367 50.662C96.8051 51.1304 97.0607 51.7478 97.0607 52.493L97.0394 52.4717Z" fill="#949494"/>
<path d="M13.2588 39.1646H22.9038C25.8207 39.1646 28.1626 41.5279 28.1626 44.4235V54.0471C28.1626 56.9639 25.7993 59.3272 22.8825 59.3272H13.2588C10.342 59.3272 8 56.9639 8 54.0683V44.4448C8 41.5279 10.3633 39.1859 13.2588 39.1859V39.1646Z" fill="#949494"/>
<path d="M51.3914 26.3262C51.2424 31.798 46.686 36.1414 41.2142 36.1414H36.509C33.5921 36.1414 31.25 33.7781 31.25 30.8825V21.2589C31.25 18.342 33.6134 16 36.509 16H41.3207C46.9841 16 51.5618 20.6628 51.4128 26.3475L51.3914 26.3262Z" fill="#949494"/>
<path d="M36.4875 59.3484C33.5706 59.3484 31.2285 56.9851 31.2285 54.0895V44.4659C31.2285 41.5491 33.5919 39.207 36.4875 39.207H46.111C49.0279 39.207 51.37 41.5703 51.37 44.4659C51.37 48.5751 49.7093 52.3011 47.0053 55.005C44.3013 57.709 40.5754 59.3697 36.4662 59.3697L36.4875 59.3484Z" fill="#949494"/>
<path d="M18.1134 36.1413C23.6636 36.1413 28.1628 31.642 28.1628 26.0919C28.1628 20.5417 23.6636 16.0425 18.1134 16.0425C12.5633 16.0425 8.06396 20.5417 8.06396 26.0919C8.06396 31.642 12.5633 36.1413 18.1134 36.1413Z" fill="#949494"/>
</svg>
