<svg width="24" height="20" viewBox="0 0 24 20" fill="none" xmlns="http://www.w3.org/2000/svg">
<path fill-rule="evenodd" clip-rule="evenodd" d="M1.02857 2.66667H22.9714C23.5387 2.66667 24 2.06869 24 1.33333C24 0.59798 23.5387 0 22.9714 0H1.02857C0.461299 0 0 0.59798 0 1.33333C0 2.06869 0.461299 2.66667 1.02857 2.66667ZM1.02857 11.3334H22.9714C23.5387 11.3334 24 10.7354 24 10C24 9.26467 23.5387 8.66669 22.9714 8.66669H1.02857C0.461299 8.66669 0 9.26467 0 10C0 10.7354 0.461299 11.3334 1.02857 11.3334ZM22.9714 20H1.02857C0.461299 20 0 19.402 0 18.6666C0 17.9313 0.461299 17.3333 1.02857 17.3333H22.9714C23.5387 17.3333 24 17.9313 24 18.6666C24 19.402 23.5387 20 22.9714 20Z" fill="#F1F3F6"/>
</svg>
