<svg width="54" height="56" viewBox="0 0 54 56" fill="none" xmlns="http://www.w3.org/2000/svg">
<path d="M40.575 0H13.425C6.01057 0 0 6.23318 0 13.9222V42.0778C0 49.7668 6.01057 56 13.425 56H40.575C47.9894 56 54 49.7668 54 42.0778V13.9222C54 6.23318 47.9894 0 40.575 0Z" fill="#F4B446"/>
<path d="M25.7336 32.0547C25.7336 32.0547 25.4169 35.3011 25.2269 35.3011C25.0368 35.2694 23.3582 35.0636 23.3582 35.0636L22.5189 34.3034L18.3223 33.4483L18.3539 32.7673C19.6208 32.8307 25.7494 32.0705 25.7494 32.0705L25.7336 32.0547Z" fill="#5A2C33"/>
<path d="M14.9177 12.0533C14.1575 11.8158 13.4449 11.5466 12.7481 11.2615C12.1305 10.6914 11.7346 10.1688 12.0038 9.67789C12.6214 8.55351 19.0668 9.42451 19.0668 9.42451C19.0668 9.42451 19.1618 7.65085 19.7002 7.46082C20.1436 7.31829 23.9443 8.47433 25.3696 8.93358C26.2089 9.86792 26.5731 10.7706 26.3356 11.5307C25.6546 13.6369 20.5395 13.8745 14.9018 12.0533H14.9177Z" fill="#5A2C33"/>
<path d="M31.0388 35.3326C31.0388 35.3326 28.0141 34.0341 27.6499 31.7853C26.8739 31.0727 25.0052 30.6926 22.9624 30.6135C22.9307 30.851 22.899 31.0252 22.8673 31.0727C22.7723 31.2152 20.7611 30.946 19.5259 30.7085C18.449 30.8193 17.4672 31.0094 16.7229 31.2627C16.7229 31.2627 17.3405 27.9055 17.4514 25.2133C17.2138 25.1341 16.9921 25.0391 16.7546 24.9441C16.7704 23.8989 16.6596 23.0437 16.327 22.4736C16.137 22.1569 16.0103 21.8085 15.8994 21.4126C16.1845 21.5076 16.6596 21.666 17.2138 21.856C17.0555 20.2724 17.1346 17.7228 17.3563 17.6436C17.6256 17.5803 21.8222 16.9943 22.6298 17.5011C23.4216 18.0078 31.8781 20.1616 32.0207 20.7C32.179 21.2384 31.2605 22.2994 31.2922 22.9487C31.308 23.598 30.928 28.048 31.1655 29.8058C31.4031 31.5636 31.0705 35.3168 31.0705 35.3168L31.0388 35.3326Z" fill="#5A2C33"/>
<path d="M30.5169 38.991L32.2273 44.5178L31.0554 45.4205L29.3926 48.1918C30.1527 43.0609 30.5169 38.991 30.5169 38.991Z" fill="#5A2C33"/>
<path d="M37.5006 24.3424C38.7675 25.9577 37.4531 29.0299 36.297 29.7267C35.1252 30.4393 32.4172 32.5614 32.2113 29.1566C32.0213 25.736 36.2337 22.7271 37.5006 24.3424Z" fill="#5A2C33"/>
<path d="M39.5898 26.0529C39.8116 25.4512 40.0649 24.8177 40.3183 24.1526C40.2708 24.2793 40.2233 24.4376 40.1599 24.5643C39.9699 25.0711 39.7799 25.5778 39.5898 26.0529Z" fill="#5A2C33"/>
<path d="M42.2984 18.3563C42.2667 18.6255 42.0609 19.3065 41.76 20.1933C41.5383 20.3517 41.3007 20.4942 41.0632 20.605C37.1516 22.3312 31.2131 17.4853 27.7766 9.77306C27.4599 9.09211 27.2065 8.39531 26.9531 7.71436C28.5209 8.36364 32.1949 10.5332 32.1949 10.5332C32.1949 10.5332 32.1791 8.71204 32.575 8.60118C32.9709 8.49033 38.3869 10.7232 39.7805 12.006C41.174 13.3045 41.0949 15.4424 41.0949 15.4424C41.0949 15.4424 42.4884 17.0894 42.3142 18.3563H42.2984Z" fill="#5A2C33"/>
<path d="M25.7336 32.0547C25.7336 32.0547 25.4169 35.3011 25.2269 35.3011C25.0368 35.2694 23.3582 35.0636 23.3582 35.0636L22.5189 34.3034L18.3223 33.4483L18.3539 32.7673C19.6208 32.8307 25.7494 32.0705 25.7494 32.0705L25.7336 32.0547Z" fill="#4C232A"/>
<path d="M31.0388 35.3326C31.0388 35.3326 28.0141 34.0341 27.6499 31.7853C26.8739 31.0727 25.0052 30.6926 22.9624 30.6135C22.9307 30.851 22.899 31.0252 22.8673 31.0727C22.7723 31.2152 20.7611 30.946 19.5259 30.7085C18.449 30.8193 17.4672 31.0094 16.7229 31.2627C16.7229 31.2627 17.3405 27.9055 17.4514 25.2133C17.2138 25.1341 16.9921 25.0391 16.7546 24.9441C16.7704 23.8989 16.6596 23.0437 16.327 22.4736C16.137 22.1569 16.0103 21.8085 15.8994 21.4126C16.1845 21.5076 16.6596 21.666 17.2138 21.856C17.0555 20.2724 17.1346 17.7228 17.3563 17.6436C17.6256 17.5803 21.8222 16.9943 22.6298 17.5011C23.4216 18.0078 31.8781 20.1616 32.0207 20.7C32.179 21.2384 31.2605 22.2994 31.2922 22.9487C31.308 23.598 30.928 28.048 31.1655 29.8058C31.4031 31.5636 31.0705 35.3168 31.0705 35.3168L31.0388 35.3326Z" fill="#4C232A"/>
<path d="M30.5169 38.991L32.2273 44.5178L31.0554 45.4205L29.3926 48.1918C30.1527 43.0609 30.5169 38.991 30.5169 38.991Z" fill="#4C232A"/>
<path d="M37.5006 24.3424C38.7675 25.9577 37.4531 29.0299 36.297 29.7267C35.1252 30.4393 32.4172 32.5614 32.2113 29.1566C32.0213 25.736 36.2337 22.7271 37.5006 24.3424Z" fill="#4C232A"/>
<path d="M41.76 20.1934C41.76 20.1934 41.7443 20.2406 41.7285 20.2721C41.7285 20.2564 41.7443 20.2091 41.7443 20.1934H41.76Z" fill="#4C232A"/>
<path d="M36.2814 29.7267C35.1095 30.4393 32.4016 32.5614 32.1957 29.1566C32.0056 25.736 36.2181 22.7271 37.485 24.3424C38.7519 25.9577 37.4375 29.0299 36.2814 29.7267Z" fill="#F9B596"/>
<path d="M31.2603 22.9646C31.2761 23.6138 30.8961 28.0638 31.1336 29.8216C31.3712 31.5795 31.0386 35.3326 31.0386 35.3326C31.0386 35.3326 28.0139 34.0341 27.6496 31.7853C26.8737 31.0727 25.005 30.6926 22.9621 30.6135C21.8219 30.5501 20.6184 30.5976 19.5257 30.7085C18.4488 30.8193 17.467 31.0094 16.7227 31.2627C16.7227 31.2627 17.3403 27.9055 17.4511 25.2133C17.4986 24.2156 17.4511 23.313 17.3244 22.6953C17.2769 22.4736 17.2294 22.1886 17.1977 21.856C17.0394 20.2724 17.1186 17.7228 17.3403 17.6436C17.6095 17.5803 21.8061 16.9943 22.6137 17.5011C23.4055 18.0078 31.8621 20.1616 32.0046 20.7C32.163 21.2384 31.2445 22.2994 31.2761 22.9487L31.2603 22.9646Z" fill="#F9B596"/>
<path d="M36.5968 25.7676C36.0108 25.0233 34.5064 25.7043 33.6196 26.9237C33.8571 27.0979 34.0788 27.3512 34.2372 27.6521C34.6489 28.4439 34.5381 29.3308 33.9838 29.6317C33.6987 29.79 33.3345 29.7425 33.002 29.5525C33.382 31.1361 35.029 29.885 35.7575 29.4575C36.5651 28.9824 37.4678 26.8762 36.5809 25.7676H36.5968Z" fill="#E87668"/>
<path d="M20.349 27.8737C19.4147 28.0004 18.3062 27.272 18.3062 27.272L18.1953 28.0638C19.003 28.238 19.6998 28.1271 20.349 27.8737Z" fill="#EA8E6F"/>
<path d="M24.8311 28.6978C25.8446 29.2837 27.0006 28.7928 27.0006 28.7928L27.1431 29.9013C26.2722 29.7746 25.512 29.3154 24.8311 28.6978Z" fill="#EA8E6F"/>
<path d="M21.7749 26.7022C21.9332 25.9263 21.4898 25.1186 20.793 24.8969C20.0962 24.6752 19.3994 25.1186 19.2411 25.8946C19.0827 26.6706 19.5261 27.4782 20.2229 27.6999C20.9197 27.9216 21.6165 27.4782 21.7749 26.7022Z" fill="#2C1016"/>
<path d="M27.9667 28.0005C28.0934 27.3196 27.6341 26.5753 26.9373 26.3536C26.2405 26.1319 25.5754 26.4961 25.4487 27.1929C25.3221 27.8738 25.7813 28.6181 26.4781 28.8398C27.1749 29.0616 27.84 28.6973 27.9667 28.0005Z" fill="#2C1016"/>
<path d="M28.8847 27.7313C28.7421 27.7313 28.4096 27.668 27.982 27.573C27.3169 27.4463 26.3984 27.2404 25.4957 27.0187C24.2446 26.7178 23.0253 26.4169 22.6294 26.3061C22.5343 26.2902 22.471 26.2744 22.471 26.2744L21.9801 25.3876L21.8059 26.0527H21.7584C21.7584 26.0527 21.6633 26.0527 21.5842 26.0527C21.1883 26.021 20.3489 25.9418 19.3038 25.736C18.7336 25.6093 18.0844 25.4509 17.4351 25.2292C17.1975 25.15 16.9758 25.055 16.7383 24.96C16.2949 24.7858 15.8673 24.5641 15.4556 24.3107C15.4556 24.3107 15.313 21.3335 15.5981 21.3335C15.6298 21.3335 15.7248 21.3652 15.8831 21.4127C16.1682 21.5077 16.6433 21.6661 17.1975 21.8561C19.0187 22.4895 21.79 23.5031 22.1384 23.5822C22.6452 23.7089 29.138 23.6456 29.5023 23.8673C29.8665 24.0732 28.9005 27.7313 28.9005 27.7313H28.8847Z" fill="#4C232A"/>
<path d="M32.2273 44.5178L31.0554 45.4205L29.3926 48.1918C30.1527 43.0609 30.5169 38.991 30.5169 38.991L32.2273 44.5178Z" fill="#3E1A22"/>
<path d="M18.6553 20.3994C21.6642 22.2681 22.5827 22.3948 22.9311 22.4423C23.2794 22.4898 28.6954 22.4898 28.6954 22.4898L22.741 21.5396L18.6553 20.3994Z" fill="#EA8E6F"/>
<path d="M21.3633 19.6548C23.1053 20.0349 24.578 21.0484 24.578 21.0484L26.2567 21.2384C26.2567 21.2384 24.0396 19.734 23.6754 19.7498C23.3111 19.7498 21.3633 19.6706 21.3633 19.6706V19.6548Z" fill="#EA8E6F"/>
<path d="M25.7336 32.0547C25.7336 32.0547 25.4169 35.3011 25.2269 35.3011C25.0368 35.2694 23.3582 35.0636 23.3582 35.0636L22.5189 34.3034L18.3223 33.4483L18.3539 32.7673C19.6208 32.8307 25.7494 32.0705 25.7494 32.0705L25.7336 32.0547Z" fill="#2C1016"/>
<path d="M18.9084 33.0999C19.9853 33.1632 25.4013 32.6406 25.4013 32.6406C25.4013 32.6406 25.2112 35.1903 25.037 35.1586C24.8628 35.1269 23.3109 34.921 23.3109 34.921L22.5349 34.0817L18.8926 33.3691L18.9243 33.0999H18.9084Z" fill="white"/>
<path d="M25.2906 34.6834L25.0689 34.1766L23.3428 34.0816L25.5282 33.4165L25.2906 34.6834Z" fill="#2C1016"/>
<path d="M23.1046 29.1726C23.1046 29.1726 23.0413 30.0436 22.9463 30.6137C22.9146 30.8512 22.8829 31.0254 22.8512 31.0729C22.7562 31.2155 20.745 30.9462 19.5098 30.7087C18.9714 30.582 18.5755 30.487 18.5438 30.4078C18.4805 30.2811 19.5098 29.1251 20.4917 27.7315C20.8876 27.1931 21.2676 26.6071 21.5844 26.037C21.616 25.9578 21.6635 25.8945 21.711 25.8153C22.0436 25.1502 22.2653 24.5167 22.2653 23.9941L22.6295 26.2587V26.3062L22.2811 28.9825L23.1205 29.1726H23.1046Z" fill="#EA8E6F"/>
<path d="M41.048 20.6051C37.1364 22.3313 31.1979 17.4854 27.7614 9.77316C27.4447 9.09221 27.1913 8.39541 26.9379 7.71446C26.8904 7.69862 26.8429 7.68278 26.8112 7.66695C26.7479 7.65111 26.7162 7.61944 26.6529 7.6036C26.4628 7.54026 26.3361 7.50858 26.2728 7.54026C25.7344 7.71446 25.8927 9.09221 25.8927 9.09221C25.8927 9.09221 25.8927 9.09221 25.8611 9.09221C25.8136 9.07637 25.6869 9.0447 25.5443 8.99719C25.4968 8.99719 25.4176 8.96552 25.3385 8.93384C26.1778 9.86818 26.542 10.7708 26.3045 11.531C25.6235 13.6372 20.5084 13.8747 14.8707 12.0536C14.1106 11.816 13.398 11.5468 12.7012 11.2618C12.9229 11.4676 13.1604 11.6893 13.4296 11.9111C13.6038 12.0694 13.778 12.2278 13.9681 12.3861C14.0789 12.4812 14.1739 12.592 14.2848 12.7029C14.5857 13.0196 14.8549 13.3363 15.0291 13.6689C15.7259 15.0308 15.1558 18.9423 15.8367 21.4286C16.1218 21.5236 16.5969 21.682 17.1511 21.872C16.9928 20.2884 17.072 17.7388 17.2937 17.6596C17.5629 17.5963 21.7595 17.0103 22.5671 17.5171C23.3589 18.0238 31.8155 20.1776 31.958 20.716C32.1164 21.2544 31.1979 22.3154 31.2295 22.9647C31.2454 23.614 30.8653 28.064 31.1028 29.8218C31.3404 31.5796 31.0078 35.3328 31.0078 35.3328C31.0078 35.3328 27.9831 34.0342 27.6189 31.7855C26.8429 31.0729 24.9742 30.6928 22.9314 30.6136C22.8997 30.8512 22.868 31.0254 22.8363 31.0729C22.7413 31.2154 20.7301 30.9462 19.4949 30.7086C18.418 30.8195 17.4362 31.0095 16.6919 31.2629C16.6919 31.2629 17.3095 27.9056 17.4204 25.2135C17.1828 25.1343 16.9611 25.0393 16.7236 24.9443C16.6602 28.0165 15.3141 32.5456 14.3323 34.636C13.7939 35.8237 15.1716 37.154 15.1716 37.154C15.1716 37.154 13.398 39.6719 14.4432 41.4931C17.2778 46.3865 29.2183 48.4294 29.2183 48.4294L29.3767 48.176C30.1368 43.045 30.5011 38.9751 30.5011 38.9751L32.2114 44.502L33.9059 43.2034C34.9827 42.665 38.1183 29.7901 38.1183 29.7901C38.1183 29.7901 38.5934 28.5866 39.211 26.9555C39.306 26.7179 39.401 26.4645 39.496 26.227C39.5119 26.1636 39.5435 26.1003 39.5752 26.037C39.7969 25.4352 40.0503 24.8017 40.3037 24.1366C40.4304 23.7724 40.5887 23.3923 40.7154 23.0281C40.8104 22.7905 40.8896 22.5371 40.9846 22.2996C41.0163 22.2046 41.048 22.1254 41.0797 22.0462C41.1905 21.7295 41.3014 21.4286 41.4122 21.1277C41.5231 20.811 41.6181 20.5259 41.7131 20.2567C41.7131 20.2409 41.7289 20.1934 41.7289 20.1776C41.5072 20.3359 41.2697 20.4784 41.0321 20.5893L41.048 20.6051ZM25.2118 35.3011C25.0217 35.2695 23.3431 35.0636 23.3431 35.0636L22.5038 34.3035L18.3072 33.4483L18.3389 32.7673C19.6058 32.8307 25.7344 32.0705 25.7344 32.0705C25.7344 32.0705 25.4176 35.317 25.2276 35.317L25.2118 35.3011ZM32.2114 29.1567C32.0213 25.7361 36.2338 22.7272 37.5007 24.3425C38.7676 25.9578 37.4532 29.03 36.2971 29.7268C35.1252 30.4394 32.4173 32.5615 32.2114 29.1567Z" fill="#4C232A"/>
</svg>
