<svg width="54" height="56" viewBox="0 0 54 56" fill="none" xmlns="http://www.w3.org/2000/svg">
<path d="M40.575 0H13.425C6.01057 0 0 6.23318 0 13.9222V42.0778C0 49.7668 6.01057 56 13.425 56H40.575C47.9894 56 54 49.7668 54 42.0778V13.9222C54 6.23318 47.9894 0 40.575 0Z" fill="url(#paint0_radial_84_2874)"/>
<path d="M15.3993 30.9076C16.3312 31.4481 17.3736 31.7266 18.5581 31.7266C19.7427 31.7266 20.7851 31.4481 21.717 30.9076C22.6488 30.3671 23.3753 29.6301 23.9281 28.7128C24.4651 27.7956 24.7336 26.7474 24.7336 25.5681C24.7336 24.3888 24.4651 23.406 23.9281 22.4724C23.3911 21.5552 22.6488 20.8181 21.717 20.294C20.7851 19.7699 19.7269 19.5078 18.5739 19.5078C17.421 19.5078 16.3312 19.7699 15.3993 20.3104C14.4675 20.8509 13.7409 21.5716 13.2039 22.4888C12.6669 23.406 12.3984 24.4379 12.3984 25.5681C12.3984 26.6982 12.6669 27.7629 13.2039 28.6965C13.7409 29.6301 14.4833 30.3671 15.4151 30.9076H15.3993ZM16.3312 24.1922C16.5523 23.7827 16.8524 23.4552 17.2314 23.2259C17.6105 22.9966 18.0527 22.8819 18.5581 22.8819C19.0635 22.8819 19.49 22.9966 19.869 23.2259C20.2481 23.4552 20.5482 23.7827 20.7693 24.1922C20.9904 24.6017 21.101 25.0767 21.101 25.6008C21.101 26.125 20.9904 26.6327 20.7851 27.0586C20.5798 27.4844 20.2797 27.812 19.8848 28.0249C19.5058 28.2542 19.0635 28.3689 18.5581 28.3689C18.0527 28.3689 17.6263 28.2542 17.2314 28.0249C16.8366 27.7956 16.5365 27.468 16.3312 27.0586C16.1258 26.6491 15.9995 26.1413 15.9995 25.6008C15.9995 25.0931 16.11 24.6181 16.3312 24.2086V24.1922Z" fill="#F1F3F6"/>
<path d="M28.7606 30.9076C29.6925 31.4481 30.7349 31.7266 31.9195 31.7266C33.104 31.7266 34.1464 31.4481 35.0783 30.9076C36.0101 30.3671 36.7367 29.6301 37.2895 28.7128C37.8265 27.7956 38.095 26.7474 38.095 25.5681C38.095 24.3888 37.8265 23.406 37.2895 22.4724C36.7525 21.5552 36.0101 20.8181 35.0783 20.294C34.1464 19.7699 33.0882 19.5078 31.9353 19.5078C30.7823 19.5078 29.6925 19.7699 28.7606 20.3104C27.8288 20.8509 27.1023 21.5716 26.5653 22.4888C26.0283 23.406 25.7598 24.4379 25.7598 25.5681C25.7598 26.6982 26.0283 27.7629 26.5653 28.6965C27.1023 29.6301 27.8446 30.3671 28.7764 30.9076H28.7606ZM29.6925 24.1922C29.9136 23.7827 30.2137 23.4552 30.5928 23.2259C30.9718 22.9966 31.4141 22.8819 31.9195 22.8819C32.4249 22.8819 32.8513 22.9966 33.2304 23.2259C33.6094 23.4552 33.9095 23.7827 34.1306 24.1922C34.3518 24.6017 34.4623 25.0767 34.4623 25.6008C34.4623 26.125 34.3518 26.6327 34.1464 27.0586C33.9411 27.4844 33.641 27.812 33.2462 28.0249C32.8671 28.2542 32.4249 28.3689 31.9195 28.3689C31.4141 28.3689 30.9876 28.2542 30.5928 28.0249C30.1979 27.7956 29.8978 27.468 29.6925 27.0586C29.4872 26.6491 29.3608 26.1413 29.3608 25.6008C29.3608 25.0931 29.4714 24.6181 29.6925 24.2086V24.1922Z" fill="#F1F3F6"/>
<path d="M34.3681 32.7422H16.2838C14.2938 32.7422 12.667 34.4292 12.667 36.493H41.6018V32.7422L37.8428 35.5266C37.4321 33.9215 36.0422 32.7422 34.3681 32.7422Z" fill="#F1F3F6"/>
<defs>
<radialGradient id="paint0_radial_84_2874" cx="0" cy="0" r="1" gradientUnits="userSpaceOnUse" gradientTransform="translate(51.5677 -0.52413) scale(67.7409 70.2498)">
<stop stop-color="#FF2669"/>
<stop offset="1" stop-color="#FF002C"/>
</radialGradient>
</defs>
</svg>
