<svg width="96" height="32" viewBox="0 0 96 32" fill="none" xmlns="http://www.w3.org/2000/svg">
<path d="M40.861 1.15217C40.097 0.752659 39.2255 0.55896 38.2467 0.55896H34.4864C33.6269 0.55896 32.9346 1.26113 32.9346 2.13278V12.7016C32.9346 13.5733 33.6269 14.2754 34.4864 14.2754C35.3459 14.2754 36.0383 13.5733 36.0383 12.7016V11.5273C36.0383 10.6556 36.7306 9.95346 37.5901 9.95346H38.3302C39.2972 9.95346 40.1567 9.74766 40.8968 9.34815C41.6488 8.94864 42.2218 8.37964 42.6516 7.67747C43.0694 6.9632 43.2842 6.15208 43.2842 5.25621C43.2842 4.36034 43.0694 3.5129 42.6396 2.81074C42.2099 2.10857 41.613 1.56378 40.849 1.16428L40.861 1.15217ZM39.5956 6.53948C39.2614 6.87846 38.8197 7.03584 38.2586 7.03584H36.9216C36.4322 7.03584 36.0383 6.63633 36.0383 6.13998V4.33613C36.0383 3.83977 36.4322 3.44026 36.9216 3.44026H38.1631C38.748 3.44026 39.2136 3.60975 39.5598 3.93663C39.9179 4.2756 40.097 4.69932 40.097 5.24411C40.097 5.78889 39.9298 6.21261 39.5956 6.55159V6.53948Z" fill="#F1F3F6"/>
<path d="M45.9818 0.547058H45.9699C45.1392 0.547058 44.4658 1.23 44.4658 2.07246V12.7502C44.4658 13.5927 45.1392 14.2756 45.9699 14.2756H45.9818C46.8125 14.2756 47.486 13.5927 47.486 12.7502V2.07246C47.486 1.23 46.8125 0.547058 45.9818 0.547058Z" fill="#F1F3F6"/>
<path d="M57.012 14.2756C57.5731 14.2756 58.0267 13.8156 58.0267 13.2587L58.0625 8.81567C58.0625 7.88348 57.8834 7.08446 57.5373 6.40651C57.1911 5.72856 56.6658 5.19588 55.9735 4.82059C55.2811 4.44529 54.4216 4.25159 53.4189 4.25159C52.6788 4.25159 52.0341 4.37265 51.485 4.60267C50.9359 4.83269 50.4584 5.14745 50.0884 5.54696C49.5512 6.11596 49.778 7.04815 50.5062 7.30238L50.5778 7.32659C51.2343 7.54451 51.9387 7.42344 52.5236 7.04815C52.7981 6.87866 53.1085 6.79391 53.4666 6.79391C53.9322 6.79391 54.2784 6.90287 54.5052 7.13289C54.732 7.35081 54.8991 7.66557 54.9827 8.05297C55.0304 8.25878 54.8633 8.46459 54.6604 8.46459H52.7026C51.5208 8.46459 50.5897 8.71882 49.9332 9.22729C49.2766 9.73575 48.9424 10.5106 48.9424 11.5396C48.9424 12.496 49.2527 13.2345 49.8854 13.755C50.5181 14.2756 51.4015 14.542 52.5474 14.542C53.6934 14.542 54.5052 14.1788 55.0424 13.4645C55.0782 13.4161 55.114 13.3676 55.1378 13.3192C55.1617 13.8761 55.6034 14.3119 56.1525 14.3119H56.9881L57.012 14.2756ZM54.8872 11.2975C54.72 11.5759 54.5052 11.7938 54.2187 11.9512C53.9322 12.1207 53.6099 12.1933 53.2279 12.1933C52.8459 12.1933 52.5594 12.1207 52.3445 11.9875C52.1296 11.8544 52.0222 11.6607 52.0222 11.4306C52.0222 11.1038 52.1654 10.8495 52.4519 10.6679C52.7384 10.4863 53.204 10.3895 53.8486 10.3895H54.3858C54.8394 10.3895 55.114 10.8859 54.8872 11.2854V11.2975Z" fill="#F1F3F6"/>
<path d="M67.6362 14.2756C68.4718 14.2756 69.1403 13.5855 69.1403 12.7502V8.69456C69.1403 7.67763 69.009 6.8423 68.7464 6.18855C68.4838 5.53481 68.0898 5.05056 67.5527 4.72369C67.0274 4.40893 66.3709 4.23944 65.5949 4.23944C64.8906 4.23944 64.2699 4.43314 63.7327 4.80843C63.6253 4.89318 63.5178 4.97792 63.4104 5.07478C63.1717 5.29269 62.8016 5.15952 62.7658 4.83265C62.7419 4.62684 62.5867 4.46946 62.3838 4.46946H60.259C60.056 4.46946 59.877 4.63895 59.877 4.85686V12.7502C59.877 13.5976 60.5574 14.2756 61.3811 14.2756C62.2167 14.2756 62.8852 13.5855 62.8852 12.7502V9.10618C62.8852 8.42822 63.0284 7.91976 63.3268 7.58078C63.6253 7.24181 64.067 7.08442 64.64 7.09653C64.9503 7.10864 65.213 7.19338 65.4278 7.32655C65.6427 7.47183 65.8098 7.70185 65.9172 8.0045C66.0366 8.30716 66.0963 8.73089 66.0963 9.25146V12.7381C66.0963 13.5855 66.7767 14.2635 67.6004 14.2635L67.6362 14.2756Z" fill="#F1F3F6"/>
<path d="M76.9356 13.9851C77.1982 13.9851 77.4011 13.7672 77.4011 13.5129V9.50573C77.4011 8.59776 77.2818 7.83506 77.043 7.22974C76.8043 6.62443 76.4342 6.17649 75.9567 5.87384C75.4673 5.57118 74.8585 5.4259 74.1303 5.4259C73.6886 5.4259 73.2947 5.48643 72.9246 5.6196C72.5665 5.75277 72.2323 5.93437 71.9458 6.20071C71.7906 6.33388 71.6354 6.50336 71.5041 6.68496C71.3131 6.92708 71.3966 7.29027 71.6831 7.42344C71.8861 7.52029 72.1368 7.44766 72.2681 7.25396C72.4471 6.99972 72.662 6.79392 72.9008 6.66075C73.235 6.45494 73.6528 6.35809 74.1423 6.35809C74.6794 6.35809 75.1211 6.47915 75.4553 6.70917C75.7896 6.93919 76.0403 7.29027 76.1955 7.75031C76.2671 7.96823 76.3268 8.22246 76.3745 8.50091C76.4223 8.77935 76.2074 9.02148 75.9209 9.02148H73.9871C73.0201 9.02148 72.2681 9.2515 71.719 9.71154C71.1698 10.1716 70.9072 10.8132 70.9072 11.6364C70.9072 12.4597 71.1818 13.065 71.719 13.5129C72.2681 13.9609 73.0201 14.1909 73.9871 14.1909C74.954 14.1909 75.6822 13.8398 76.2193 13.1497C76.3029 13.0408 76.3745 12.9318 76.4461 12.8108L76.4939 13.5492C76.5058 13.8035 76.7088 13.9972 76.9594 13.9972L76.9356 13.9851ZM76.1238 11.9754C75.9209 12.3991 75.6344 12.7139 75.2524 12.9318C74.8704 13.1497 74.4168 13.2587 73.8916 13.2587C73.2589 13.2587 72.7575 13.1134 72.3994 12.8229C72.0413 12.5323 71.8622 12.1328 71.8622 11.6243C71.8622 11.1159 72.0413 10.68 72.3875 10.3774C72.7336 10.0868 73.3066 9.92945 74.0945 9.92945H75.9567C76.2074 9.92945 76.4223 10.1353 76.4223 10.4016C76.4223 11.0311 76.3268 11.5517 76.1238 11.9754Z" fill="#F1F3F6"/>
<path d="M86.0438 13.9851C86.3184 13.9851 86.5332 13.755 86.5332 13.4887V9.71152V9.32412C86.5332 8.39193 86.4139 7.62923 86.1274 7.07234C85.8528 6.50334 85.4589 6.09173 84.9695 5.82539C84.48 5.55905 83.919 5.43799 83.2744 5.43799C82.5701 5.43799 81.9732 5.60748 81.4838 5.94646C81.3644 6.0312 81.245 6.12805 81.1376 6.2249C80.9227 6.43071 80.5526 6.29754 80.5407 5.99488C80.5407 5.78907 80.3736 5.63169 80.1826 5.63169H79.9558C79.7648 5.63169 79.5977 5.78907 79.5977 5.99488V13.5008C79.5977 13.7792 79.8245 13.9972 80.0871 13.9972C80.3616 13.9972 80.5765 13.7671 80.5765 13.5008V9.69941C80.5765 8.64616 80.7914 7.83504 81.2331 7.25394C81.6747 6.67283 82.2835 6.37018 83.0595 6.37018C83.525 6.37018 83.9309 6.45492 84.301 6.62441C84.671 6.7939 84.9575 7.12077 85.1724 7.60502C85.3873 8.08927 85.4947 8.79144 85.4947 9.71152V13.4887C85.4947 13.7671 85.7215 13.9851 85.9841 13.9851H86.0438Z" fill="#F1F3F6"/>
<path d="M94.9016 2.77462V5.97069C94.9016 6.32177 94.4838 6.52758 94.2212 6.28545C94.1018 6.1765 93.9824 6.07965 93.8511 5.9828C93.3139 5.6075 92.7051 5.42591 92.0008 5.42591C91.2965 5.42591 90.628 5.6075 90.067 5.9828C89.5059 6.35809 89.0642 6.86656 88.7539 7.5324C88.4315 8.18615 88.2764 8.94884 88.2764 9.80839C88.2764 10.6679 88.4315 11.4064 88.7539 12.0723C89.0762 12.7381 89.5178 13.2587 90.067 13.6219C90.628 13.9972 91.2726 14.1788 92.0008 14.1788C92.729 14.1788 93.3259 13.9972 93.8511 13.6219C93.9943 13.525 94.1257 13.4161 94.245 13.295C94.4957 13.0529 94.9135 13.2103 94.9255 13.5614C94.9255 13.8035 95.1165 13.973 95.3313 13.973H95.4746C95.7014 13.973 95.8804 13.7914 95.8804 13.5614V2.77462C95.8804 2.49617 95.6536 2.27826 95.391 2.27826C95.1164 2.27826 94.9016 2.50828 94.9016 2.77462ZM93.6004 12.835C93.1945 13.1255 92.729 13.2829 92.2037 13.2829C91.6307 13.2829 91.1294 13.1376 90.6877 12.835C90.246 12.5444 89.8998 12.1328 89.6492 11.6001C89.3985 11.0796 89.2672 10.4742 89.2672 9.79628C89.2672 9.11833 89.3865 8.51302 89.6372 7.99245C89.8879 7.47187 90.2222 7.06026 90.6638 6.7576C91.1055 6.46705 91.6069 6.30967 92.1799 6.30967C92.717 6.30967 93.1945 6.45494 93.6004 6.7576C94.0063 7.04815 94.3286 7.45977 94.5554 7.99245C94.7822 8.51302 94.9016 9.11833 94.9016 9.79628C94.9016 10.4742 94.7822 11.0796 94.5554 11.6001C94.3286 12.1207 94.0063 12.5323 93.6004 12.835Z" fill="#F1F3F6"/>
<path d="M40.861 17.6896C40.097 17.2901 39.2255 17.0964 38.2467 17.0964H34.4864C33.6269 17.0964 32.9346 17.7985 32.9346 18.6702V29.239C32.9346 30.1107 33.6269 30.8128 34.4864 30.8128C35.3459 30.8128 36.0383 30.1107 36.0383 29.239V28.0647C36.0383 27.193 36.7306 26.4909 37.5901 26.4909H38.3302C39.2972 26.4909 40.1567 26.2851 40.8968 25.8856C41.6488 25.4861 42.2218 24.9171 42.6516 24.2149C43.0694 23.5006 43.2842 22.6895 43.2842 21.7936C43.2842 20.8978 43.0694 20.0503 42.6396 19.3482C42.2099 18.646 41.613 18.1012 40.849 17.7017L40.861 17.6896ZM39.5956 23.0769C39.2614 23.4159 38.8197 23.5733 38.2586 23.5733H36.9813C36.4561 23.5733 36.0383 23.1374 36.0383 22.6169V20.9341C36.0383 20.4014 36.468 19.9777 36.9813 19.9777H38.1631C38.748 19.9777 39.2136 20.1472 39.5598 20.474C39.9179 20.813 40.097 21.2367 40.097 21.7815C40.097 22.3263 39.9298 22.75 39.5956 23.089V23.0769Z" fill="#F1F3F6"/>
<path d="M50.8522 26.1882C50.8522 26.854 50.7089 27.3504 50.4105 27.6893C50.112 28.0283 49.6704 28.1857 49.0974 28.1857C48.7989 28.1736 48.5483 28.0888 48.3214 27.9557C48.1066 27.8104 47.9395 27.5804 47.8201 27.2656C47.7007 26.9509 47.641 26.5392 47.641 26.0308V22.5442C47.641 21.6967 46.9606 21.0188 46.1369 21.0188C45.3013 21.0188 44.6328 21.7088 44.6328 22.5442V26.5998C44.6328 27.6167 44.7641 28.452 45.0267 29.1058C45.2893 29.7595 45.6833 30.2438 46.2205 30.5706C46.7457 30.8854 47.4023 31.0549 48.1782 31.0549C48.8825 31.0549 49.5032 30.8612 50.0404 30.4859C50.1598 30.4012 50.2672 30.3164 50.3747 30.2196C50.6015 30.0017 50.9715 30.159 51.0073 30.4617C51.0312 30.6675 51.1864 30.8128 51.3893 30.8128H53.5142C53.7171 30.8128 53.8962 30.6433 53.8962 30.4254V22.532C53.8962 21.6846 53.2158 21.0067 52.3921 21.0067C51.5565 21.0067 50.888 21.6967 50.888 22.532V26.1761L50.8522 26.1882Z" fill="#F1F3F6"/>
<path d="M68.6508 17.0964H68.6389C67.8082 17.0964 67.1348 17.7793 67.1348 18.6218V29.2995C67.1348 30.142 67.8082 30.8249 68.6389 30.8249H68.6508C69.4815 30.8249 70.1549 30.142 70.1549 29.2995V18.6218C70.1549 17.7793 69.4815 17.0964 68.6508 17.0964Z" fill="#F1F3F6"/>
<path d="M73.7959 16.3094C73.3423 16.3094 72.9483 16.4789 72.6022 16.8058C72.256 17.1448 72.0889 17.5443 72.0889 18.0285C72.0889 18.4886 72.256 18.8881 72.6022 19.2392C72.9483 19.5903 73.3423 19.7598 73.7959 19.7598C74.2495 19.7598 74.6554 19.5903 74.9896 19.2392C75.3239 18.8881 75.491 18.4886 75.491 18.0285C75.491 17.5443 75.3239 17.1327 74.9896 16.8058C74.6554 16.4668 74.2495 16.3094 73.7959 16.3094Z" fill="#F1F3F6"/>
<path d="M73.808 21.0067H73.7961C72.9654 21.0067 72.292 21.6896 72.292 22.532V29.2874C72.292 30.1298 72.9654 30.8128 73.7961 30.8128H73.808C74.6387 30.8128 75.3121 30.1298 75.3121 29.2874V22.532C75.3121 21.6896 74.6387 21.0067 73.808 21.0067Z" fill="#F1F3F6"/>
<path d="M84.0505 25.5466C83.6326 25.2318 83.1313 24.9897 82.5225 24.8323L81.4959 24.5781C81.1377 24.4812 80.8632 24.3844 80.6722 24.2754C80.4812 24.1664 80.3976 24.0333 80.3976 23.8759C80.3976 23.6701 80.4693 23.5006 80.6244 23.3795C80.7796 23.2585 80.9945 23.1979 81.281 23.1979C81.6152 23.1979 81.9256 23.2706 82.2002 23.4037C82.2957 23.4522 82.3792 23.5006 82.4509 23.5611C82.7135 23.779 83.0716 23.8638 83.3939 23.7306L84.0982 23.4401C84.7428 23.1737 84.898 22.3142 84.3847 21.8299C84.0266 21.4909 83.5968 21.2367 83.0716 21.0551C82.5464 20.8735 81.9495 20.7767 81.2691 20.7767C80.0514 20.7767 79.1084 21.0551 78.428 21.5999C77.7476 22.1447 77.4014 22.9316 77.4014 23.9364C77.4014 24.6507 77.6401 25.2802 78.1295 25.825C78.607 26.3698 79.3113 26.7572 80.2066 26.9872L81.0423 27.2051C81.3884 27.302 81.663 27.3988 81.8421 27.5199C82.0331 27.641 82.1166 27.7983 82.1166 28.0041C82.1166 28.1978 82.0211 28.3552 81.8421 28.4642C81.663 28.5731 81.4123 28.6337 81.09 28.6337C80.8035 28.6337 80.517 28.561 80.2424 28.4158C80.1231 28.3552 79.944 28.2221 79.8366 28.1252C79.5501 27.8468 79.1203 27.7862 78.7503 27.9436L78.1892 28.1857C77.4849 28.4884 77.3059 29.4448 77.8789 29.9412C77.8789 29.9412 77.8789 29.9412 77.8908 29.9412C78.2847 30.2922 78.7622 30.5586 79.3113 30.7402C79.8604 30.9339 80.4454 31.0186 81.0781 31.0186C81.9017 31.0186 82.6299 30.8976 83.2626 30.6433C83.8953 30.3891 84.3847 30.0501 84.7428 29.5901C85.1009 29.1421 85.28 28.6095 85.28 27.992C85.28 27.5078 85.1726 27.0599 84.9696 26.624C84.7667 26.2003 84.4563 25.825 84.0385 25.5102L84.0505 25.5466Z" fill="#F1F3F6"/>
<path d="M94.4114 21.2609C93.8861 20.9462 93.2296 20.7767 92.4417 20.7767C91.7494 20.7767 91.1286 20.9704 90.5914 21.3457C90.2453 21.5999 89.7797 21.3457 89.7797 20.922V18.6218C89.7797 17.7743 89.0993 17.0964 88.2756 17.0964C87.44 17.0964 86.7715 17.7864 86.7715 18.6218V29.2874C86.7715 30.1349 87.4519 30.8128 88.2756 30.8128C89.1112 30.8128 89.7797 30.1228 89.7797 29.2874V25.6434C89.7797 24.9655 89.9229 24.457 90.2214 24.118C90.5198 23.7791 90.9615 23.6217 91.5345 23.6338C91.8329 23.6459 92.0836 23.7306 92.3104 23.8638C92.5253 24.0091 92.6924 24.2391 92.8118 24.5418C92.9312 24.8444 92.9908 25.2681 92.9908 25.7887V29.2753C92.9908 30.1228 93.6713 30.8007 94.4949 30.8007C95.3306 30.8007 95.9991 30.1107 95.9991 29.2753V25.2197C95.9991 24.2028 95.8677 23.3674 95.6051 22.7137C95.3425 22.06 94.9486 21.5757 94.4114 21.2488V21.2609Z" fill="#F1F3F6"/>
<path d="M64.9388 28.8031C65.3686 28.101 65.5835 27.2898 65.5835 26.3576C65.5835 25.4618 65.3686 24.6507 64.9508 23.9364C64.533 23.2221 63.948 22.6652 63.196 22.2657C62.4439 21.8662 61.5964 21.6604 60.6295 21.6604H59.1492C58.8627 21.6604 58.6359 21.4304 58.6359 21.1398V18.9123C58.6359 18.0406 57.9436 17.3384 57.0841 17.3384C56.2246 17.3384 55.5322 18.0406 55.5322 18.9123V29.4811C55.5322 30.3527 56.2246 31.0549 57.0841 31.0549H60.534C61.5128 31.0549 62.3843 30.8612 63.1482 30.4617C63.9122 30.0622 64.5091 29.5174 64.9388 28.8152V28.8031ZM62.7066 26.3698C62.7066 26.9024 62.5275 27.3383 62.1694 27.6772C61.8113 28.0162 61.3457 28.1736 60.7727 28.1736H59.5909C59.0657 28.1736 58.6479 27.7378 58.6479 27.2172V25.5344C58.6479 25.0017 59.0776 24.578 59.5909 24.578H60.8682C61.4173 24.578 61.871 24.7475 62.2052 25.0744C62.5395 25.4134 62.7066 25.8371 62.7066 26.3819V26.3698Z" fill="#F1F3F6"/>
<path d="M3.71251 16.8785H10.4929C12.5461 16.8785 14.2054 18.5613 14.2054 20.6435V27.5199C14.2054 29.6022 12.5461 31.285 10.4929 31.285H3.71251C1.65929 31.285 0 29.6022 0 27.5199V20.6435C0 18.5613 1.65929 16.8785 3.71251 16.8785Z" fill="#F1F3F6"/>
<path d="M30.5599 7.70189C30.4644 11.6122 27.2533 14.7115 23.3856 14.7115H20.067C18.0138 14.7115 16.3545 13.0287 16.3545 10.9464V4.06999C16.3545 1.98771 18.0138 0.304932 20.067 0.304932H23.4572C27.4443 0.304932 30.6554 3.63417 30.5599 7.70189Z" fill="#F1F3F6"/>
<path d="M20.067 31.2729C18.0138 31.2729 16.3545 29.5901 16.3545 27.5079V20.6315C16.3545 18.5492 18.0138 16.8664 20.067 16.8664H26.8474C28.9006 16.8664 30.5599 18.5492 30.5599 20.6315C30.5599 23.5733 29.3901 26.2246 27.492 28.1616C25.594 30.0865 22.9678 31.2729 20.067 31.2729Z" fill="#F1F3F6"/>
<path d="M7.12668 14.7114C11.0362 14.7114 14.2055 11.4973 14.2055 7.53238C14.2055 3.5675 11.0362 0.353333 7.12668 0.353333C3.21715 0.353333 0.0478516 3.5675 0.0478516 7.53238C0.0478516 11.4973 3.21715 14.7114 7.12668 14.7114Z" fill="#F1F3F6"/>
</svg>
