<svg width="55" height="55" viewBox="0 0 55 55" fill="none" xmlns="http://www.w3.org/2000/svg">
<path d="M40.6832 0H13.4608C6.0266 0 0 6.0266 0 13.4608V40.6832C0 48.1174 6.0266 54.144 13.4608 54.144H40.6832C48.1174 54.144 54.144 48.1174 54.144 40.6832V13.4608C54.144 6.0266 48.1174 0 40.6832 0Z" fill="#0052D6"/>
<path d="M34.1903 23.7704C33.0501 20.8565 30.2154 18.9087 27.064 18.9087C23.9126 18.9087 21.0937 20.8565 19.9377 23.7704C17.7365 24.4355 16.6279 25.3699 16.6279 26.5734C16.6279 27.8562 17.8948 28.838 20.3969 29.5031C22.2339 29.994 24.5935 30.2633 27.064 30.2633C29.5344 30.2633 31.894 29.994 33.731 29.5031C36.2332 28.838 37.5001 27.8562 37.5001 26.5734C37.5001 25.3699 36.3915 24.4355 34.1903 23.7704ZM19.4468 27.2544C18.7658 26.9376 18.4966 26.6684 18.4491 26.5734C18.4966 26.4784 18.75 26.2092 19.4468 25.8925C19.4309 26.1142 19.4151 26.3359 19.4151 26.5734C19.4151 26.811 19.4151 27.0327 19.4468 27.2544ZM32.765 27.8562C31.1656 28.2362 29.1544 28.4263 27.064 28.4263C24.9736 28.4263 22.9782 28.2204 21.363 27.8562C21.2679 27.4286 21.2204 27.001 21.2204 26.5576C21.2204 25.9558 21.3154 25.354 21.5055 24.7681C21.5213 24.7047 21.5372 24.6414 21.5688 24.5939C22.3923 22.266 24.6094 20.714 27.0798 20.714C29.5503 20.714 31.7673 22.2818 32.5908 24.5939C32.6067 24.6572 32.6383 24.7206 32.6542 24.7839C32.8284 25.354 32.9234 25.9558 32.9234 26.5576C32.9234 27.001 32.8759 27.4286 32.7809 27.8562H32.765ZM34.697 27.2544C34.7129 27.0327 34.7287 26.7951 34.7287 26.5734C34.7287 26.3517 34.7287 26.1142 34.697 25.8925C35.378 26.2092 35.6472 26.4784 35.6947 26.5734C35.6472 26.6684 35.3938 26.9376 34.697 27.2544Z" fill="#FACC35"/>
<path d="M39.432 31.7201C40.0179 30.3424 40.493 28.8696 40.8572 27.3018C42.235 21.3791 41.5857 16.2798 41.554 16.0581L41.4748 15.488L27.0639 10.7847L12.6529 15.488L12.5737 16.0581C12.5421 16.264 11.8928 21.3791 13.2705 27.3018C13.6348 28.8696 14.1099 30.3424 14.6958 31.7201L11.877 34.539L15.3451 38.0071H18.7024C20.8719 40.3509 23.5641 42.1245 26.7472 43.2647L27.048 43.3756L27.3489 43.2647C30.532 42.1245 33.2242 40.3509 35.3937 38.023H38.751L42.2191 34.5548L39.4003 31.736L39.432 31.7201ZM21.2045 33.1137H20.8719V35.7267H21.2045V36.7085H19.5733V35.7267H19.9059V34.0956L19.0824 35.7267L18.2589 34.0956V35.7267H18.5915V36.7085H16.9604V35.7267H17.2929V33.1137H16.9604V32.1319H18.2748L19.0983 33.763L19.9217 32.1319H21.2203V33.1137H21.2045ZM27.0639 41.4119C24.8626 40.5884 22.9306 39.4324 21.2837 37.9913H32.8599C31.213 39.4482 29.2809 40.5884 27.0797 41.4119H27.0639ZM23.3265 33.7788L23.6591 33.1296H23.5007V32.1477H25.1319V33.1296H24.6409L23.8175 34.7607V35.7425H24.15V36.7244H22.5189V35.7425H22.8514V34.7607L22.028 33.1296H21.537V32.1477H23.1682V33.1296H23.0098L23.3424 33.7788H23.3265ZM28.695 35.7267H29.0276L29.3601 35.3941V33.1137H29.0276V32.1319H30.6587V33.1137H30.3261V36.0593L29.6769 36.7085H28.0457L27.3964 36.0593V33.1137H27.0639V32.1319H28.695V33.1137H28.3624V35.3941L28.695 35.7267ZM34.9028 33.1137H34.5702V36.7085H33.5884L32.274 34.0956V35.7267H32.6066V36.7085H30.9754V35.7267H31.308V33.1137H30.9754V32.1319H32.274L33.5884 34.7449V33.1137H33.2558V32.1319H34.887V33.1137H34.9028ZM36.8507 33.1137H36.5181V35.7267H36.8507V36.7085H35.2195V35.7267H35.5521V33.1137H35.2195V32.1319H36.8507V33.1137ZM37.7375 31.055H16.3903C15.8518 29.7881 15.4084 28.4104 15.06 26.9376C13.999 22.4243 14.2049 18.3227 14.3316 16.8658L27.0639 12.7009L39.7962 16.8658C39.9229 18.3227 40.1287 22.4401 39.0677 26.9376C38.7193 28.4104 38.2759 29.7881 37.7375 31.055Z" fill="#FACC35"/>
</svg>
