<svg width="54" height="56" viewBox="0 0 54 56" fill="none" xmlns="http://www.w3.org/2000/svg">
<path d="M40.575 0H13.425C6.01057 0 0 6.23318 0 13.9222V42.0778C0 49.7668 6.01057 56 13.425 56H40.575C47.9894 56 54 49.7668 54 42.0778V13.9222C54 6.23318 47.9894 0 40.575 0Z" fill="white"/>
<path d="M20.2951 27.8281C21.6061 28.041 22.9486 28.2703 24.3384 28.2703C24.4016 28.2703 24.4648 28.2703 24.528 28.2703C24.9702 28.2703 25.3808 28.1229 25.6967 27.8608C26.139 27.5005 26.3443 27.0255 26.2969 26.5177C26.2495 25.9609 25.9021 25.4531 25.3808 25.1583C24.907 24.8962 24.4016 24.8635 23.991 24.8471L22.8222 24.7816C26.0758 23.8971 29.5505 23.7988 32.8199 24.5195H32.9146C33.2937 24.6342 33.7359 24.7324 34.1939 24.6997C34.7941 24.6669 35.3311 24.4048 35.6786 23.9954C35.9945 23.6186 36.1366 23.1273 36.0892 22.5868C36.0577 22.2264 35.9313 21.8825 35.7418 21.5713C35.2522 20.8178 34.494 20.4739 33.7359 20.1954C30.0085 18.8523 25.8389 18.5903 21.6534 19.442C18.2577 20.1299 14.9252 21.5385 11.7032 23.6186C10.7555 24.2247 10.3765 25.5022 10.8345 26.5669C11.3083 27.697 12.556 28.2703 13.6774 27.8608C14.8462 27.435 16.2519 27.3039 17.9734 27.5005C18.7315 27.5824 19.5212 27.7134 20.2636 27.8444L20.2951 27.8281Z" fill="white" stroke="#FF4D00" stroke-width="0.75" stroke-miterlimit="10"/>
<path d="M43.118 29.4333C42.6442 28.3031 41.3964 27.7299 40.2751 28.1393C39.1063 28.5652 37.7164 28.6962 35.9791 28.4997C35.2209 28.4178 34.447 28.2867 33.6889 28.1557C32.3148 27.9264 30.8934 27.6971 29.4561 27.7135C29.0139 27.7135 28.6032 27.8609 28.2873 28.123C27.8451 28.4833 27.6398 28.9583 27.6872 29.466C27.7345 30.0229 28.082 30.5307 28.6032 30.8255C29.077 31.0876 29.5825 31.1203 29.9931 31.1367L31.1619 31.2022C27.9083 32.0867 24.4336 32.185 21.1642 31.4643H21.0694C20.6904 31.3496 20.2481 31.2514 19.7743 31.2841C19.1741 31.3169 18.6371 31.5789 18.2897 31.9884C17.9738 32.3651 17.8317 32.8565 17.879 33.397C17.9106 33.7573 18.0212 34.1013 18.2265 34.4125C18.7161 35.1659 19.4742 35.5099 20.2324 35.7884C22.5225 36.6073 24.9706 37.0332 27.4976 37.0332C29.077 37.0332 30.688 36.8694 32.299 36.5418C35.679 35.8539 39.0273 34.4453 42.2493 32.3651C43.197 31.7591 43.576 30.4815 43.118 29.4169V29.4333Z" fill="white" stroke="#FF4D00" stroke-width="0.75" stroke-miterlimit="10"/>
</svg>
