<svg width="24" height="25" viewBox="0 0 24 25" fill="none" xmlns="http://www.w3.org/2000/svg">
<path fill-rule="evenodd" clip-rule="evenodd" d="M22.1058 1.9089C21.0943 0.897406 19.8253 0.456033 18.207 0.235343C16.6437 0.0146535 14.6207 0.0146484 12.0644 0.0146484H11.9356C9.3793 0.0146484 7.35637 0.0146535 5.79315 0.235343C4.17476 0.456033 2.9058 0.897406 1.89431 1.9089C0.882813 2.9204 0.441371 4.18937 0.220681 5.80776C-8.97496e-06 7.37098 0 9.39396 0 11.9503V12.079C0 14.6354 -8.97496e-06 16.6583 0.220681 18.2216C0.441371 19.84 0.882813 21.1089 1.89431 22.1204C2.9058 23.1319 4.17476 23.5733 5.79315 23.794C7.35637 24.0147 9.3793 24.0147 11.9356 24.0147H12.0644C14.6207 24.0147 16.6437 24.0147 18.207 23.794C19.8253 23.5733 21.0943 23.1319 22.1058 22.1204C23.1173 21.1089 23.5586 19.84 23.7793 18.2216C24 16.6583 24 14.6354 24 12.079V11.9503C24 9.39396 24 7.37098 23.7793 5.80776C23.5586 4.18937 23.1173 2.9204 22.1058 1.9089ZM22.0506 18.0009C21.8667 19.417 21.4988 20.2629 20.8735 20.8882C20.2482 21.5135 19.4024 21.8813 17.9863 22.0652C16.7173 22.2308 15.0805 22.2491 12.892 22.2675V15.2422H15.5219C16 15.2422 16.4046 14.856 16.4046 14.3595C16.4046 13.8629 16.0184 13.4767 15.5219 13.4767H12.892V12.0239C12.892 10.902 12.8919 10.1296 12.9655 9.57788C13.0391 9.04455 13.1678 8.80547 13.3149 8.65834C13.4621 8.51122 13.7011 8.38248 14.2345 8.30891C14.8046 8.23535 15.5586 8.23535 16.6805 8.23535H17.8575C18.3357 8.23535 18.7403 7.84913 18.7403 7.35258C18.7403 6.85603 18.3541 6.46983 17.8575 6.46983H16.6253C15.577 6.46983 14.6942 6.46984 13.9954 6.56179C13.2598 6.65374 12.5977 6.87443 12.0644 7.40777C11.531 7.9411 11.3103 8.60316 11.2184 9.33879C11.1264 10.0376 11.1264 10.902 11.1264 11.9687V13.4951H9.67359C9.19543 13.4951 8.79087 13.8813 8.79087 14.3779C8.79087 14.8744 9.17704 15.2606 9.67359 15.2606H11.1264V22.2859C8.93792 22.2859 7.30121 22.2675 6.03224 22.0836C4.61615 21.8997 3.77016 21.5319 3.14487 20.9066C2.51958 20.2813 2.15174 19.4354 1.96783 18.0193C1.78392 16.5848 1.76556 14.6905 1.76556 12.0422C1.76556 9.39397 1.76553 7.49971 1.96783 6.06523C2.15174 4.64914 2.51958 3.80316 3.14487 3.17787C3.77016 2.55258 4.61615 2.18477 6.03224 2.00086C7.46673 1.81695 9.36098 1.79856 12.0093 1.79856C14.6575 1.79856 16.5518 1.79856 17.9863 2.00086C19.4024 2.18477 20.2482 2.55258 20.8735 3.17787C21.4988 3.80316 21.8667 4.64914 22.0506 6.06523C22.2345 7.49971 22.2528 9.39397 22.2528 12.0422C22.2528 14.6905 22.2529 16.5848 22.0506 18.0193V18.0009Z" fill="#F1F3F6"/>
</svg>
