<svg width="24" height="25" viewBox="0 0 24 25" fill="none" xmlns="http://www.w3.org/2000/svg">
<path fill-rule="evenodd" clip-rule="evenodd" d="M18.4643 4.70361C17.9861 4.70361 17.5815 5.08981 17.5815 5.58636C17.5815 6.08292 17.9677 6.46913 18.4643 6.46913C18.9424 6.46913 19.3471 6.08292 19.3471 5.58636C19.3471 5.08981 18.9608 4.70361 18.4643 4.70361Z" fill="#F1F3F6"/>
<path fill-rule="evenodd" clip-rule="evenodd" d="M24 11.9503C24 9.39396 24 7.37098 23.7793 5.80776C23.5586 4.18937 23.1173 2.9204 22.1058 1.9089C21.0943 0.897406 19.8253 0.456033 18.207 0.235343C16.6437 0.0146535 14.6207 0.0146484 12.0644 0.0146484H11.9356C9.3793 0.0146484 7.35637 0.0146535 5.79315 0.235343C4.17476 0.456033 2.9058 0.897406 1.89431 1.9089C0.882813 2.9204 0.441371 4.18937 0.220681 5.80776C-8.97496e-06 7.37098 0 9.39396 0 11.9503V12.079C0 14.6354 -8.97496e-06 16.6583 0.220681 18.2216C0.441371 19.84 0.882813 21.1089 1.89431 22.1204C2.9058 23.1319 4.17476 23.5733 5.79315 23.794C7.35637 24.0147 9.3793 24.0147 11.9356 24.0147H12.0644C14.6207 24.0147 16.6437 24.0147 18.207 23.794C19.8253 23.5733 21.0943 23.1319 22.1058 22.1204C23.1173 21.1089 23.5586 19.84 23.7793 18.2216C24 16.6583 24 14.6354 24 12.079V11.9503ZM22.0506 18.0009C21.8667 19.417 21.4988 20.2629 20.8735 20.8882C20.2482 21.5135 19.4024 21.8813 17.9863 22.0652C16.5518 22.2491 14.6575 22.2675 12.0093 22.2675C9.36098 22.2675 7.46673 22.2675 6.03224 22.0652C4.61615 21.8813 3.77016 21.5135 3.14487 20.8882C2.51958 20.2629 2.15174 19.417 1.96783 18.0009C1.78392 16.5664 1.76556 14.6721 1.76556 12.0239C1.76556 9.37558 1.76553 7.48132 1.96783 6.04684C2.15174 4.63074 2.51958 3.78477 3.14487 3.15948C3.77016 2.53419 4.61615 2.16637 6.03224 1.98247C7.46673 1.79856 9.36098 1.78017 12.0093 1.78017C14.6575 1.78017 16.5518 1.78017 17.9863 1.98247C19.4024 2.16637 20.2482 2.53419 20.8735 3.15948C21.4988 3.78477 21.8667 4.63074 22.0506 6.04684C22.2345 7.48132 22.2528 9.37558 22.2528 12.0239C22.2528 14.6721 22.2529 16.5664 22.0506 18.0009Z" fill="#F1F3F6"/>
<path fill-rule="evenodd" clip-rule="evenodd" d="M12.0093 5.88135C8.62537 5.88135 5.8667 8.63996 5.8667 12.0239C5.8667 15.4078 8.62537 18.1664 12.0093 18.1664C15.3932 18.1664 18.1518 15.4078 18.1518 12.0239C18.1518 8.63996 15.3932 5.88135 12.0093 5.88135ZM12.0093 16.4009C9.58169 16.4009 7.63226 14.4331 7.63226 12.0239C7.63226 9.61468 9.60009 7.64686 12.0093 7.64686C14.4185 7.64686 16.3862 9.61468 16.3862 12.0239C16.3862 14.4331 14.4185 16.4009 12.0093 16.4009Z" fill="#F1F3F6"/>
</svg>
