<svg width="24" height="22" viewBox="0 0 24 22" fill="none" xmlns="http://www.w3.org/2000/svg">
<path fill-rule="evenodd" clip-rule="evenodd" d="M8.7319 15.1872C9.03059 15.4332 9.38201 15.6089 9.75097 15.6967C10.401 15.8724 11.0511 15.6967 11.6836 15.4332C12.2985 15.1696 13.054 14.7655 13.9852 14.256L14.0731 14.2033C14.9165 13.7465 15.6192 13.36 16.1111 13.0086C16.6207 12.6572 17.0951 12.218 17.2532 11.5679C17.3411 11.1989 17.3411 10.83 17.2532 10.4786C17.0951 9.82848 16.6207 9.38925 16.1111 9.03785C15.6192 8.68646 14.9165 8.29993 14.0731 7.84312L13.9852 7.79041C13.0716 7.2809 12.3161 6.85923 11.6836 6.61326C11.0511 6.34971 10.401 6.19158 9.75097 6.34971C9.38201 6.45513 9.03059 6.61326 8.7319 6.85923C8.18725 7.29847 7.99403 7.94854 7.90619 8.58104C7.81834 9.19598 7.81836 10.0042 7.81836 10.9705V11.0935C7.81836 12.0598 7.81834 12.8505 7.90619 13.483C7.99403 14.133 8.18725 14.7655 8.7319 15.2048V15.1872ZM9.55773 8.79188C9.62801 8.29993 9.73344 8.19451 9.78614 8.1418C9.89156 8.05395 10.0321 7.98367 10.1726 7.94853C10.2956 7.9134 10.5064 7.91341 11.0335 8.12424C11.5606 8.33508 12.2282 8.70404 13.2121 9.24869C14.1082 9.74064 14.7232 10.092 15.1448 10.3731C15.5665 10.6718 15.6193 10.8124 15.6193 10.8475C15.6368 10.9529 15.6368 11.0408 15.6193 11.1462C15.6193 11.1813 15.5665 11.3219 15.1448 11.6206C14.7232 11.9193 14.1257 12.2531 13.2121 12.745C12.2282 13.2897 11.5606 13.6587 11.0335 13.8695C10.5064 14.0803 10.278 14.0803 10.1726 14.0452C10.0145 14.01 9.89156 13.9398 9.78614 13.8519C9.73344 13.8168 9.62801 13.6938 9.55773 13.2018C9.48745 12.7099 9.48738 12.0071 9.48738 10.9881C9.48738 9.96904 9.48745 9.26626 9.55773 8.77431V8.79188Z" fill="#F1F3F6"/>
<path fill-rule="evenodd" clip-rule="evenodd" d="M5.93853 20.7393C5.93853 20.7393 6.0263 20.7568 6.07901 20.7744C7.94138 21.1434 9.92674 21.3542 11.9999 21.3542C14.0732 21.3542 16.0762 21.1434 17.921 20.7744C17.9737 20.7744 18.0088 20.7568 18.0615 20.7393C20.1698 20.3176 21.593 20.0189 22.8053 18.4552C24 16.9091 24 15.117 24 12.341V9.68801C24 6.91201 24 5.11991 22.8053 3.57379C21.593 2.0101 20.1874 1.72898 18.0615 1.28974C18.0088 1.28974 17.9737 1.27217 17.921 1.2546C16.0586 0.885643 14.0732 0.674805 11.9999 0.674805C9.92674 0.674805 7.92381 0.885643 6.07901 1.2546C6.0263 1.2546 5.99124 1.27217 5.93853 1.28974C3.83018 1.71141 2.40702 2.0101 1.19472 3.57379C-1.28809e-05 5.11991 0 6.91201 0 9.68801V12.341C0 15.117 -1.28809e-05 16.9091 1.19472 18.4552C2.40702 20.0189 3.81261 20.3 5.93853 20.7393ZM1.66913 9.93398C1.66913 6.8066 1.70424 5.647 2.51244 4.59283C3.32064 3.55622 4.11122 3.36295 6.41283 2.88858C8.15222 2.53718 10.0322 2.34392 11.9999 2.34392C13.9677 2.34392 15.8478 2.53718 17.5872 2.88858C19.8888 3.36295 20.6794 3.55622 21.4876 4.59283C22.2958 5.62943 22.3309 6.8066 22.3309 9.93398V12.095C22.3309 15.2224 22.2958 16.382 21.4876 17.4362C20.6794 18.4728 19.8888 18.6661 17.5872 19.1404C15.8478 19.4918 13.9677 19.6851 11.9999 19.6851C10.0322 19.6851 8.15222 19.4918 6.41283 19.1404C4.11122 18.6661 3.32064 18.4728 2.51244 17.4362C1.70424 16.3996 1.66913 15.2224 1.66913 12.095V9.93398Z" fill="#F1F3F6"/>
</svg>
