<svg width="24" height="25" viewBox="0 0 24 25" fill="none" xmlns="http://www.w3.org/2000/svg">
<path fill-rule="evenodd" clip-rule="evenodd" d="M23.7241 0.290442C23.3562 -0.0774473 22.7752 -0.0774473 22.4267 0.290442L13.9072 8.80998L7.82737 0.38726C7.6531 0.154909 7.382 0 7.0722 0H0.914915C0.566388 0 0.25662 0.19363 0.10172 0.503431C-0.0531809 0.813232 -0.0338609 1.18112 0.179127 1.47156L9.00846 13.7087L0.275917 22.4412C-0.0919722 22.8091 -0.0919722 23.39 0.275917 23.7385C0.643806 24.087 1.22477 24.1064 1.57329 23.7385L10.0928 15.219L16.1726 23.6417C16.3469 23.8741 16.618 24.029 16.9278 24.029H23.0851C23.4336 24.029 23.7434 23.8353 23.8983 23.5255C24.0532 23.2157 24.0339 22.8478 23.8209 22.5574L14.9915 10.3203L23.7241 1.58773C24.092 1.21984 24.092 0.638968 23.7241 0.290442ZM21.265 22.1702H17.3925L10.9641 13.2634L2.735 1.85881H6.60752L13.0359 10.7656L21.265 22.1702Z" fill="#F1F3F6"/>
</svg>
