<svg width="24" height="25" viewBox="0 0 24 25" fill="none" xmlns="http://www.w3.org/2000/svg">
<path fill-rule="evenodd" clip-rule="evenodd" d="M6.16104 8.80518C5.68288 8.80518 5.27832 9.19139 5.27832 9.68794V17.8719C5.27832 18.35 5.66449 18.7546 6.16104 18.7546C6.6576 18.7546 7.04388 18.3684 7.04388 17.8719V9.68794C7.04388 9.20978 6.6576 8.80518 6.16104 8.80518Z" fill="#F1F3F6"/>
<path fill-rule="evenodd" clip-rule="evenodd" d="M6.16104 7.03993C6.63921 7.03993 7.04388 6.65373 7.04388 6.15718C7.04388 5.66063 6.6576 5.27441 6.16104 5.27441C5.68288 5.27441 5.27832 5.66063 5.27832 6.15718C5.27832 6.65373 5.66449 7.03993 6.16104 7.03993Z" fill="#F1F3F6"/>
<path fill-rule="evenodd" clip-rule="evenodd" d="M1.8942 22.1204C2.90569 23.1319 4.17476 23.5733 5.79315 23.794C7.35637 24.0147 9.3793 24.0147 11.9356 24.0147H12.0644C14.6207 24.0147 16.6437 24.0147 18.207 23.794C19.8253 23.5733 21.0943 23.1319 22.1058 22.1204C23.1173 21.1089 23.5586 19.84 23.7793 18.2216C24 16.6583 24 14.6354 24 12.079V11.9503C24 9.39396 24 7.37098 23.7793 5.80776C23.5586 4.18937 23.1173 2.9204 22.1058 1.9089C21.0943 0.897406 19.8253 0.456033 18.207 0.235343C16.6437 0.0146535 14.6207 0.0146484 12.0644 0.0146484H11.9356C9.3793 0.0146484 7.35637 0.0146535 5.79315 0.235343C4.17476 0.456033 2.90569 0.897406 1.8942 1.9089C0.882701 2.9204 0.441371 4.18937 0.220681 5.80776C-8.97496e-06 7.37098 0 9.39396 0 11.9503V12.079C0 14.6354 -8.97496e-06 16.6583 0.220681 18.2216C0.441371 19.84 0.882701 21.1089 1.8942 22.1204ZM1.96783 6.02846C2.15174 4.61236 2.51958 3.76638 3.14487 3.1411C3.77016 2.51581 4.61604 2.14799 6.03213 1.96409C7.46662 1.78018 9.36087 1.76179 12.0091 1.76179C14.6574 1.76179 16.5517 1.76179 17.9862 1.96409C19.4023 2.14799 20.2482 2.51581 20.8735 3.1411C21.4988 3.76638 21.8667 4.61236 22.0506 6.02846C22.2345 7.46294 22.2528 9.35719 22.2528 12.0055C22.2528 14.6538 22.2529 16.548 22.0506 17.9825C21.8667 19.3986 21.4988 20.2446 20.8735 20.8698C20.2482 21.4951 19.4023 21.863 17.9862 22.0469C16.5517 22.2308 14.6574 22.2492 12.0091 22.2492C9.36087 22.2492 7.46662 22.2492 6.03213 22.0469C4.61604 21.863 3.77016 21.4951 3.14487 20.8698C2.51958 20.2446 2.15174 19.3986 1.96783 17.9825C1.78392 16.548 1.76556 14.6538 1.76556 12.0055C1.76556 9.35719 1.76553 7.46294 1.96783 6.02846Z" fill="#F1F3F6"/>
<path fill-rule="evenodd" clip-rule="evenodd" d="M10.8322 18.7362C11.3104 18.7362 11.7149 18.35 11.7149 17.8535V13.1822C11.7149 11.7293 12.8919 10.5523 14.3448 10.5523C15.7977 10.5523 16.9747 11.7293 16.9747 13.1822V17.8535C16.9747 18.3316 17.361 18.7362 17.8575 18.7362C18.3541 18.7362 18.7402 18.35 18.7402 17.8535V13.1822C18.7402 10.7546 16.7724 8.80518 14.3632 8.80518C13.3701 8.80518 12.469 9.13622 11.7333 9.68794C11.7333 9.20978 11.3472 8.80518 10.8506 8.80518C10.3541 8.80518 9.96777 9.19139 9.96777 9.68794V17.8719C9.96777 18.35 10.3541 18.7546 10.8506 18.7546L10.8322 18.7362Z" fill="#F1F3F6"/>
</svg>
