<svg width="24" height="22" viewBox="0 0 24 22" fill="none" xmlns="http://www.w3.org/2000/svg">
<path fill-rule="evenodd" clip-rule="evenodd" d="M23.7414 5.20976C23.5485 4.08736 23.1626 3.15787 22.3734 2.36869C21.5842 1.5795 20.6547 1.19368 19.4973 1.00077C18.3924 0.807854 17.0245 0.772776 15.3233 0.737701H15.2532C13.0786 0.685089 10.9214 0.685089 8.74678 0.737701H8.67667C6.97553 0.790314 5.6076 0.807854 4.50274 1.00077C3.34527 1.19368 2.41576 1.5795 1.62657 2.36869C0.837384 3.15787 0.451616 4.06983 0.258703 5.20976C0.0657912 6.27955 0.048228 7.62993 0.0131531 9.27845V9.34861C-0.00438437 10.4535 -0.00438437 11.5583 0.0131531 12.6807V12.7509C0.048228 14.3994 0.0833287 15.7322 0.258703 16.8196C0.451616 17.942 0.837384 18.8714 1.62657 19.6606C2.41576 20.4498 3.34527 20.8356 4.50274 21.0286C5.6076 21.2215 6.97553 21.2565 8.67667 21.2916H8.74678C10.9214 21.3442 13.0786 21.3442 15.2532 21.2916H15.3233C17.0245 21.239 18.3924 21.2215 19.4973 21.0286C20.6547 20.8356 21.5842 20.4498 22.3734 19.6606C23.1626 18.8714 23.5485 17.9595 23.7414 16.8196C23.9343 15.7498 23.9518 14.3994 23.9868 12.7509V12.6807C24.0044 11.5759 24.0044 10.471 23.9868 9.34861V9.27845C23.9518 7.62993 23.9168 6.29709 23.7414 5.20976ZM2.83666 3.56124C3.31017 3.08772 3.8889 2.80713 4.80085 2.64929C5.76541 2.47392 7.0106 2.45638 8.78189 2.40377C10.939 2.35116 13.061 2.35116 15.2181 2.40377C17.0069 2.45638 18.2521 2.47392 19.1992 2.64929C20.1286 2.80713 20.6898 3.08772 21.1633 3.56124C21.3563 3.75415 21.5141 3.9646 21.6544 4.21013L15.0252 7.96314C13.6222 8.75233 12.7805 9.068 11.9913 9.068C11.2021 9.068 10.3602 8.76987 8.95722 7.96314L2.32811 4.21013C2.45087 3.9646 2.62619 3.75415 2.81911 3.56124H2.83666ZM22.3209 12.6281C22.2858 14.3643 22.2507 15.5744 22.0929 16.5039C21.935 17.3983 21.672 17.977 21.1984 18.4506C20.7249 18.9241 20.1462 19.2047 19.2343 19.3625C18.2697 19.5379 17.0245 19.5554 15.2532 19.608C13.0961 19.6606 10.9741 19.6606 8.817 19.608C7.02818 19.5554 5.78298 19.5379 4.83596 19.3625C3.90647 19.2047 3.34528 18.9241 2.87177 18.4506C2.39826 17.977 2.13518 17.3983 1.97734 16.5039C1.8195 15.5744 1.78442 14.3643 1.74935 12.6281C1.73181 11.5408 1.73181 10.4535 1.74935 9.36615C1.78442 7.84039 1.80202 6.73552 1.92478 5.84111L8.20312 9.40122C9.6412 10.2255 10.8162 10.7165 12.0614 10.7165C13.3065 10.7165 14.4816 10.2255 15.9197 9.40122L22.1981 5.84111C22.3209 6.71799 22.3384 7.84039 22.3734 9.36615C22.391 10.4535 22.391 11.5408 22.3734 12.6281H22.3209Z" fill="#F1F3F6"/>
</svg>
