<svg width="36" height="39" viewBox="0 0 36 39" fill="none" xmlns="http://www.w3.org/2000/svg">
<path fill-rule="evenodd" clip-rule="evenodd" d="M22.0417 7.80127C20.0264 7.80127 18.3693 9.54065 18.3693 11.7089V23.1221L17.4736 22.2643C15.9957 20.7871 13.734 21.073 12.5472 22.7885C11.6067 24.1705 11.6067 26.1243 12.5472 27.5063L16.7346 33.5346C16.7346 33.5346 16.8466 33.6775 16.8914 33.749C18.0334 35.3931 18.8172 36.5368 19.892 37.2278C20.0936 37.3469 20.2951 37.4661 20.4966 37.5614C21.6611 38.1094 22.9374 38.1094 24.7513 38.1094H26.4979C27.8415 38.1094 28.8044 38.1094 29.6553 37.8235C31.066 37.3469 32.2529 36.3224 33.059 34.9642C33.5516 34.1303 33.8204 33.1295 34.2682 31.6046C34.2682 31.5331 34.313 31.4854 34.313 31.414C34.3802 31.2233 34.425 31.0089 34.4698 30.8421C35.1191 28.6024 35.4326 27.4348 35.4326 25.8384C35.4326 23.1698 34.1339 21.3113 32.4768 20.1437C31.8946 19.7387 31.2228 19.4766 30.439 19.286C29.7001 19.0953 28.7596 18.9285 27.5952 18.7379H27.5504L25.647 18.3805V11.7089C25.647 9.56448 24.0123 7.80127 21.9746 7.80127H22.0417ZM27.1921 21.3113C28.4013 21.5257 29.2522 21.6687 29.924 21.8355C30.5734 22.0022 30.9317 22.169 31.178 22.3358C32.2976 23.1221 33.0366 24.2182 33.0366 25.8622C33.0366 27.0774 32.8127 27.8399 32.1185 30.3179C32.0961 30.437 32.0513 30.5562 32.0065 30.6992C31.4915 32.4862 31.3124 33.1295 30.9989 33.6299C30.4838 34.5115 29.7449 35.1072 28.9387 35.3931C28.4909 35.5361 27.9534 35.5599 26.3188 35.5599H25.02C22.8703 35.5599 22.1537 35.5361 21.5491 35.2263C21.4371 35.1787 21.3028 35.1072 21.1908 35.0357C20.5862 34.6545 20.0936 33.9873 18.75 32.0335L14.5625 26.0052C14.2266 25.5287 14.2266 24.8377 14.5625 24.3611C14.8984 23.8608 15.4582 23.8131 15.8389 24.1943L20.8325 28.9598V11.7328C20.8325 11.0179 21.3699 10.4223 22.0641 10.4223C22.7583 10.4223 23.2957 10.9941 23.2957 11.7328V19.5004C23.2957 20.1199 23.7212 20.6679 24.3034 20.7871L27.2145 21.3351L27.1921 21.3113Z" fill="#CECECE"/>
<path fill-rule="evenodd" clip-rule="evenodd" d="M1.05982 26.1241C1.84357 28.1494 3.3439 29.7458 5.24729 30.5797C6.4565 31.1039 7.86725 31.1754 9.83782 31.1992C10.5096 31.1992 11.0694 30.6274 11.0694 29.9126C11.0694 29.1978 10.532 28.6021 9.8602 28.6021C7.84485 28.6021 6.90435 28.483 6.18778 28.1732C4.889 27.6014 3.85893 26.5053 3.3215 25.1233C3.14236 24.6706 3.03039 24.0988 2.98561 23.2172C2.91843 22.3117 2.91843 21.1442 2.91843 19.5001V16.0452C2.91843 12.7332 2.91843 10.3981 3.14235 8.6111C3.36628 6.87172 3.76935 5.87098 4.46353 5.13234C5.15771 4.3937 6.09822 3.96482 7.73289 3.72655C9.41236 3.48828 11.6069 3.48828 14.7195 3.48828H21.2358C24.3484 3.48828 26.5429 3.48828 28.2223 3.72655C29.857 3.96482 30.7975 4.3937 31.4917 5.13234C32.1859 5.87098 32.5889 6.87172 32.8129 8.6111C33.0368 10.3981 33.0368 12.7332 33.0368 16.0452C33.0368 16.76 33.5742 17.3557 34.2684 17.3557C34.9626 17.3557 35.5 16.7838 35.5 16.0452V15.9499C35.5 12.757 35.5 10.2313 35.2537 8.27752C35.0074 6.25222 34.4475 4.60815 33.2383 3.29766C32.0291 2.01099 30.4616 1.41531 28.5582 1.15321C26.6996 0.891115 24.326 0.891113 21.3477 0.891113H14.6523C11.6516 0.891113 9.278 0.891115 7.44178 1.15321C5.53839 1.41531 3.99329 2.01099 2.76168 3.29766C1.55247 4.58433 0.992644 6.25222 0.746323 8.27752C0.500001 10.2552 0.5 12.7809 0.5 15.9499V19.5716C0.5 21.1442 0.500006 22.407 0.567184 23.4078C0.634363 24.4323 0.768719 25.3139 1.08222 26.1479L1.05982 26.1241Z" fill="#CECECE"/>
</svg>
