<svg width="36" height="31" viewBox="0 0 36 31" fill="none" xmlns="http://www.w3.org/2000/svg">
<path fill-rule="evenodd" clip-rule="evenodd" d="M35.3698 14.738C35.2582 13.808 35.0165 13.0758 34.4586 12.4624C33.9006 11.8687 33.1753 11.6115 32.3199 11.473C31.483 11.3542 30.423 11.3542 29.084 11.3542H28.2657V7.6538C28.2657 3.79506 25.3087 0.648682 21.6823 0.648682H7.08342C3.45696 0.648682 0.5 3.79506 0.5 7.6538V18.0625C0.5 21.941 3.45696 25.0676 7.08342 25.0676H11.3422C11.5468 26.2549 11.305 27.5412 10.7099 28.3525L10.5983 28.5108H7.79011C7.25079 28.5108 6.80446 28.6889 6.80446 29.2627C6.80446 29.8366 7.25079 30.3115 7.79011 30.3115H20.957C21.5149 30.3115 21.9426 29.8564 21.9426 29.2627C21.9426 28.6691 21.5149 28.5108 20.957 28.5108H18.1674L18.0558 28.3525C17.4607 27.5214 17.2189 26.2549 17.4235 25.0676H21.6823C21.9984 25.0676 22.3146 25.0478 22.6121 24.9884C22.6121 25.7404 22.6493 26.4132 22.7237 26.9673C22.8353 27.8973 23.077 28.6295 23.6536 29.243C24.2115 29.8366 24.9182 30.0939 25.7736 30.2324C26.6105 30.3511 27.6706 30.3511 29.0096 30.3511H29.1026C30.4416 30.3511 31.5016 30.3511 32.3385 30.2324C33.1939 30.1137 33.9006 29.8366 34.4771 29.243C35.0351 28.6493 35.2768 27.8973 35.3884 26.9673C35.5 26.0768 35.5 24.9489 35.5 23.5439V18.1416C35.5 16.7169 35.5 15.6087 35.3884 14.7182L35.3698 14.738ZM29.0654 12.68C29.7349 12.68 30.3114 12.68 30.8135 12.68C30.7391 13.0362 30.7019 13.2737 30.6647 13.4716C30.5903 13.7091 30.5531 13.7882 30.4973 13.8278C30.4416 13.8674 30.3672 13.9267 30.144 13.9465C29.9022 13.9663 29.5861 13.9861 29.0654 13.9861C28.7306 13.9861 28.4888 13.9861 28.2843 13.9861C28.1541 13.9861 28.0611 13.9861 27.9681 13.9663C27.745 13.9465 27.6706 13.8872 27.6334 13.8476C27.5962 13.808 27.5218 13.7288 27.466 13.4914C27.4102 13.2935 27.373 13.0362 27.3172 12.6998C27.6148 12.6998 27.9309 12.6998 28.2843 12.6998H29.0654V12.68ZM15.7497 28.2733H13.2391V25.0874H15.7497V28.2733ZM7.08342 22.9898C4.5356 22.9898 2.4713 20.8131 2.4713 18.0823V7.67355C2.4713 4.96254 4.517 2.76606 7.08342 2.76606H21.6823C24.2301 2.76606 26.2944 4.94275 26.2944 7.67355V11.4334C26.1084 11.4334 25.941 11.4532 25.7736 11.4928C24.9182 11.6115 24.2115 11.8885 23.6536 12.4822C23.0956 13.0758 22.8539 13.8278 22.7237 14.7578C22.6121 15.6483 22.6121 16.7564 22.6121 18.1812V22.9107C22.3146 22.9898 21.9984 23.0096 21.6823 23.0096H7.08342V22.9898ZM34.2354 23.5043C34.2354 24.9686 34.2354 26.0175 34.1424 26.809C34.0308 27.5609 33.8634 27.9963 33.5845 28.3129C33.3055 28.6295 32.8778 28.8076 32.1711 28.9066C31.4272 29.0253 30.4601 29.0253 29.084 29.0253C27.7078 29.0253 26.7221 29.0253 25.9782 28.9066C25.2529 28.8076 24.8624 28.6098 24.5648 28.3129C24.2673 28.0161 24.0999 27.5609 24.0069 26.809C23.9325 26.2549 23.8953 25.5623 23.8953 24.6916V18.201C23.8953 16.7367 23.8953 15.6879 24.0069 14.8964C24.0999 14.1246 24.2859 13.7091 24.5648 13.3924C24.8624 13.0758 25.2529 12.8977 25.9782 12.7987C26.0154 12.7987 26.0526 12.7987 26.0898 12.7987C26.1642 13.2143 26.2014 13.5903 26.2944 13.8871C26.2944 13.9267 26.313 13.9861 26.3316 14.0257C26.4245 14.3225 26.5733 14.5996 26.8151 14.837C27.1126 15.114 27.4474 15.2525 27.8193 15.2921C27.9681 15.2921 28.1355 15.3119 28.3029 15.3119C28.5446 15.3119 28.7864 15.3119 29.084 15.3119C29.5675 15.3119 29.9952 15.3119 30.33 15.2723C30.7019 15.2129 31.0367 15.0942 31.3342 14.8172C31.6318 14.56 31.762 14.2235 31.8735 13.8673C31.9479 13.5507 32.0223 13.1946 32.0781 12.779C32.0967 12.779 32.1525 12.779 32.1711 12.779C32.8964 12.8779 33.3055 13.0758 33.5845 13.3726C33.882 13.6892 34.0494 14.1048 34.1424 14.8766C34.2354 15.6681 34.2354 16.7169 34.2354 18.1812V23.4845V23.5043Z" fill="#B6B6B6"/>
<path fill-rule="evenodd" clip-rule="evenodd" d="M29.8841 26.3735H28.2289C27.8942 26.3735 27.6152 26.6703 27.6152 27.0265C27.6152 27.3827 27.8942 27.6796 28.2289 27.6796H29.8841C30.2188 27.6796 30.4978 27.3827 30.4978 27.0265C30.4978 26.6703 30.2188 26.3735 29.8841 26.3735Z" fill="#B6B6B6"/>
</svg>
