<svg width="36" height="36" viewBox="0 0 36 36" fill="none" xmlns="http://www.w3.org/2000/svg">
<path d="M11.0757 20.3503H5.06425C2.54834 20.3503 0.5 22.4 0.5 24.9175V30.9328C0.5 33.4503 2.54834 35.4999 5.06425 35.4999H11.0757C13.5916 35.4999 15.6399 33.4503 15.6399 30.9328V24.9175C15.6399 22.4 13.5916 20.3503 11.0757 20.3503ZM13.1018 30.9105C13.1018 32.0244 12.1889 32.9156 11.098 32.9156H5.08651C3.97328 32.9156 3.0827 32.0021 3.0827 30.8882V24.8729C3.0827 23.759 3.99554 22.8678 5.08651 22.8678H11.098C12.2112 22.8678 13.1018 23.7813 13.1018 24.8729V30.8882V30.9105Z" fill="#B6B6B6"/>
<path d="M30.7134 20.3503H24.7019C22.186 20.3503 20.1377 22.4 20.1377 24.9175V30.9328C20.1377 33.4503 22.186 35.4999 24.7019 35.4999C27.5296 35.4999 30.179 34.4082 32.1829 32.4032C34.1867 30.3981 35.2776 27.7469 35.2776 24.9175C35.2776 22.4 33.2293 20.3503 30.7134 20.3503ZM30.3794 30.5763C28.8654 32.0912 26.8616 32.9156 24.7019 32.9156C23.5887 32.9156 22.6981 32.0021 22.6981 30.9105V24.8952C22.6981 23.7813 23.611 22.8901 24.7019 22.8901H30.7134C31.8266 22.8901 32.7172 23.8036 32.7172 24.8952C32.7172 27.034 31.8934 29.0613 30.3794 30.5763Z" fill="#B6B6B6"/>
<path d="M8.09264 0.744873C3.92915 0.744873 0.544922 4.13125 0.544922 8.29738C0.544922 12.4635 3.92915 15.8499 8.09264 15.8499C12.2561 15.8499 15.6403 12.4635 15.6403 8.29738C15.6403 4.13125 12.2561 0.744873 8.09264 0.744873ZM8.09264 13.2878C5.33182 13.2878 3.10536 11.0377 3.10536 8.29738C3.10536 5.55709 5.35409 3.30693 8.09264 3.30693C10.8312 3.30693 13.0799 5.55709 13.0799 8.29738C13.0799 11.0377 10.8312 13.2878 8.09264 13.2878Z" fill="#B6B6B6"/>
<path d="M21.1841 9.56745H26.4386V14.8252C26.4386 15.5382 27.0175 16.0951 27.7077 16.0951C28.3979 16.0951 28.9767 15.5159 28.9767 14.8252V9.56745H34.2312C34.9437 9.56745 35.5003 8.98821 35.5003 8.29757C35.5003 7.60692 34.9214 7.02767 34.2312 7.02767H28.9767V1.76989C28.9767 1.05697 28.3979 0.5 27.7077 0.5C27.0175 0.5 26.4386 1.07925 26.4386 1.76989V7.02767H21.1841C20.4717 7.02767 19.915 7.60692 19.915 8.29757C19.915 8.98821 20.4939 9.56745 21.1841 9.56745Z" fill="#B6B6B6"/>
</svg>
