<svg width="36" height="38" viewBox="0 0 36 38" fill="none" xmlns="http://www.w3.org/2000/svg">
<path fill-rule="evenodd" clip-rule="evenodd" d="M34.1871 19.3316C33.4528 19.3316 32.8521 19.9708 32.8298 20.7521C32.8298 24.2561 32.7853 26.7894 32.4738 28.7308C32.1846 30.6248 31.6728 31.8086 30.8495 32.6846C29.9595 33.6316 28.758 34.1762 26.6887 34.4839C24.5972 34.7917 21.8604 34.7917 18.0111 34.7917C14.1617 34.7917 11.4249 34.7917 9.3334 34.4839C7.28636 34.1998 6.08485 33.6316 5.17258 32.6846C4.28256 31.7375 3.77081 30.4591 3.48155 28.2572C3.1923 26.0317 3.1923 23.1197 3.1923 19.0238C3.1923 14.9279 3.1923 12.0158 3.48155 9.79032C3.74856 7.61217 4.28256 6.31002 5.17258 5.363C5.99584 4.487 7.10837 3.94244 8.8884 3.63466C10.7129 3.32687 13.0937 3.27951 16.3868 3.25584C17.121 3.25584 17.7218 2.61663 17.7218 1.81166C17.7218 1.03037 17.121 0.391113 16.3645 0.391113C13.116 0.391113 10.5127 0.438424 8.44339 0.793558C6.3296 1.14869 4.61632 1.85898 3.25904 3.32686C1.79052 4.88945 1.12301 6.87819 0.811504 9.3878C0.499999 11.8264 0.5 14.9279 0.5 18.9054V19.1185C0.5 23.0723 0.499999 26.1975 0.811504 28.6124C1.12301 31.0983 1.79052 33.1107 3.25904 34.6733C4.72757 36.2359 6.59661 36.9462 8.95515 37.2776C11.2469 37.6091 14.1617 37.6091 17.8776 37.6091H18.0778C21.7936 37.6091 24.7307 37.6091 27.0225 37.2776C29.381 36.9462 31.25 36.2359 32.7186 34.6733C34.0758 33.2291 34.7434 31.4061 35.0994 29.1569C35.4331 26.9551 35.4776 24.1851 35.4776 20.7284C35.4776 19.9471 34.8769 19.3079 34.1426 19.2842L34.1871 19.3316Z" fill="#B6B6B6"/>
<path fill-rule="evenodd" clip-rule="evenodd" d="M35.4779 8.44083C35.4334 6.83089 35.3221 4.81846 35.0996 3.46895C34.9884 2.85338 34.7436 2.28516 34.3431 1.83533C33.8981 1.33814 33.3196 1.0067 32.6743 0.888318C31.4061 0.651563 29.5148 0.533153 28.0018 0.485802C27.223 0.462126 26.5332 0.438477 26.0215 0.438477C25.7767 0.438477 25.5542 0.438477 25.4207 0.438477H25.1982C24.4639 0.438477 23.8632 1.07773 23.8632 1.85903C23.8632 2.64032 24.4639 3.27958 25.1982 3.27958H25.3985C25.532 3.27958 25.7322 3.27958 25.977 3.27958C26.4665 3.27958 27.1562 3.27955 27.8905 3.3269C28.8473 3.35058 29.8708 3.42162 30.7608 3.49265L15.2745 19.8998C14.7405 20.468 14.7405 21.3677 15.2745 21.9359C15.8085 22.5042 16.6541 22.5042 17.1881 21.9359L32.6298 5.57611C32.6966 6.49946 32.7411 7.54114 32.7856 8.48816C32.8078 9.29313 32.8301 10.0034 32.8301 10.5243C32.8301 10.7847 32.8301 10.9978 32.8301 11.1398V11.353C32.8301 12.1579 33.4308 12.7971 34.1651 12.7971C34.8994 12.7971 35.5001 12.1579 35.5001 11.353V11.1162C35.5001 10.9741 35.5001 10.7373 35.5001 10.4769C35.5001 9.93236 35.5001 9.19846 35.4556 8.36981L35.4779 8.44083Z" fill="#B6B6B6"/>
</svg>
