<svg width="78" height="59" viewBox="0 0 78 59" fill="none" xmlns="http://www.w3.org/2000/svg">
<path fill-rule="evenodd" clip-rule="evenodd" d="M74.9436 24.2359C72.3965 20.4832 67.8901 14.4894 61.7672 9.38165C55.6444 4.32599 47.7582 0 38.5494 0C29.3407 0 21.4544 4.32599 15.3316 9.38165C9.20876 14.4373 4.70235 20.4832 2.15525 24.2359C2.10627 24.3401 2.0083 24.4443 1.95932 24.4965C1.07763 25.8516 0 27.3631 0 29.5C0 31.637 1.02864 33.1484 1.95932 34.5035C2.0083 34.6078 2.10627 34.712 2.15525 34.7641C4.70235 38.5168 9.20876 44.5107 15.3316 49.6184C21.4544 54.6741 29.3407 59 38.5494 59C47.7582 59 55.6444 54.6741 61.7672 49.6184C67.8901 44.5628 72.3965 38.5168 74.9436 34.7641C74.9926 34.6599 75.0905 34.5557 75.1395 34.5035C76.0212 33.1484 77.0988 31.637 77.0988 29.5C77.0988 27.3631 76.0702 25.8516 75.1395 24.4965C75.0905 24.3922 74.9926 24.288 74.9436 24.2359ZM71.7107 29.5521C71.7107 29.5521 71.7107 29.6564 71.6127 29.917C71.4658 30.2819 71.1719 30.6988 70.5841 31.5327C68.2329 35.0769 64.0694 40.6016 58.4854 45.1882C52.9014 49.8269 46.1907 53.3711 38.5984 53.3711C31.0061 53.3711 24.2465 49.8269 18.7114 45.1882C13.1764 40.5495 8.96385 35.0769 6.61268 31.5327C6.02489 30.6467 5.73098 30.2297 5.58403 29.917C5.48606 29.7085 5.48606 29.6563 5.48606 29.6042C5.48606 29.6042 5.48606 29.4479 5.58403 29.2394C5.73098 28.8746 6.02489 28.4576 6.61268 27.6237C8.96385 24.0795 13.1274 18.5547 18.7114 13.9682C24.2954 9.32947 31.0061 5.78534 38.5984 5.78534C46.1907 5.78534 52.9503 9.32947 58.4854 13.9682C64.0204 18.6069 68.2329 24.0795 70.5841 27.6237C71.1719 28.5098 71.4658 28.9267 71.6127 29.2394C71.7107 29.4479 71.7107 29.5 71.7107 29.5521Z" fill="#3A3A3A"/>
<path fill-rule="evenodd" clip-rule="evenodd" d="M38.598 15.2712C31.2016 15.2712 25.1768 21.6821 25.1768 29.5522C25.1768 37.4223 31.2016 43.8332 38.598 43.8332C45.9944 43.8332 52.0193 37.4223 52.0193 29.5522C52.0193 21.6821 45.9944 15.2712 38.598 15.2712ZM38.598 38.0999C34.1406 38.0999 30.5649 34.243 30.5649 29.5522C30.5649 24.8614 34.1896 21.0045 38.598 21.0045C43.0065 21.0045 46.6312 24.8614 46.6312 29.5522C46.6312 34.243 43.0065 38.0999 38.598 38.0999Z" fill="#3A3A3A"/>
</svg>
