<svg width="36" height="27" viewBox="0 0 36 27" fill="none" xmlns="http://www.w3.org/2000/svg">
<path fill-rule="evenodd" clip-rule="evenodd" d="M34.5216 11.1103C33.3653 9.40676 31.3196 6.68581 28.54 4.36707C25.7605 2.07199 22.1804 0.108154 18 0.108154C13.8196 0.108154 10.2395 2.07199 7.45998 4.36707C4.68043 6.66215 2.63469 9.40676 1.4784 11.1103C1.45617 11.1576 1.41169 11.205 1.38946 11.2286C0.989203 11.8438 0.5 12.53 0.5 13.5001C0.5 14.4702 0.966966 15.1563 1.38946 15.7715C1.41169 15.8188 1.45617 15.8661 1.4784 15.8898C2.63469 17.5933 4.68043 20.3143 7.45998 22.6331C10.2395 24.9282 13.8196 26.892 18 26.892C22.1804 26.892 25.7605 24.9282 28.54 22.6331C31.3196 20.338 33.3653 17.5933 34.5216 15.8898C34.5438 15.8425 34.5883 15.7951 34.6105 15.7715C35.0108 15.1563 35.5 14.4702 35.5 13.5001C35.5 12.53 35.033 11.8438 34.6105 11.2286C34.5883 11.1813 34.5438 11.134 34.5216 11.1103ZM33.054 13.5237C33.054 13.5237 33.054 13.5711 33.0095 13.6894C32.9428 13.855 32.8094 14.0443 32.5426 14.4228C31.4752 16.0318 29.5851 18.5398 27.0502 20.6219C24.5152 22.7277 21.4689 24.3366 18.0222 24.3366C14.5756 24.3366 11.507 22.7277 8.99428 20.6219C6.48157 18.5161 4.56925 16.0318 3.50191 14.4228C3.23507 14.0206 3.10165 13.8313 3.03494 13.6894C2.99047 13.5947 2.99047 13.571 2.99047 13.5474C2.99047 13.5474 2.99047 13.4764 3.03494 13.3818C3.10165 13.2161 3.23507 13.0269 3.50191 12.6483C4.56925 11.0394 6.45934 8.53132 8.99428 6.44918C11.5292 4.34339 14.5756 2.73448 18.0222 2.73448C21.4689 2.73448 24.5375 4.34339 27.0502 6.44918C29.5629 8.55498 31.4752 11.0394 32.5426 12.6483C32.8094 13.0505 32.9428 13.2398 33.0095 13.3818C33.054 13.4764 33.054 13.5001 33.054 13.5237Z" fill="#B6B6B6"/>
<path fill-rule="evenodd" clip-rule="evenodd" d="M18.0224 7.04077C14.6648 7.04077 11.9297 9.95104 11.9297 13.5238C11.9297 17.0965 14.6648 20.0068 18.0224 20.0068C21.3801 20.0068 24.1152 17.0965 24.1152 13.5238C24.1152 9.95104 21.3801 7.04077 18.0224 7.04077ZM18.0224 17.4041C15.9989 17.4041 14.3757 15.6533 14.3757 13.5238C14.3757 11.3943 16.0212 9.64345 18.0224 9.64345C20.0237 9.64345 21.6692 11.3943 21.6692 13.5238C21.6692 15.6533 20.0237 17.4041 18.0224 17.4041Z" fill="#B6B6B6"/>
</svg>
