<svg width="73" height="73" viewBox="0 0 73 73" fill="none" xmlns="http://www.w3.org/2000/svg">
<path d="M22.058 41.4023H9.51976C4.27228 41.4023 0 45.6773 0 50.9281V63.4743C0 68.7251 4.27228 73.0001 9.51976 73.0001H22.058C27.3055 73.0001 31.5778 68.7251 31.5778 63.4743V50.9281C31.5778 45.6773 27.3055 41.4023 22.058 41.4023ZM26.2838 63.4279C26.2838 65.7512 24.3799 67.6099 22.1044 67.6099H9.56619C7.2443 67.6099 5.38679 65.7048 5.38679 63.3814V50.8352C5.38679 48.5118 7.29074 46.6532 9.56619 46.6532H22.1044C24.4263 46.6532 26.2838 48.5583 26.2838 50.8352V63.3814V63.4279Z" fill="#3A3A3A"/>
<path d="M63.0165 41.4023H50.4783C45.2308 41.4023 40.9585 45.6773 40.9585 50.9281V63.4743C40.9585 68.7251 45.2308 73.0001 50.4783 73.0001C56.3759 73.0001 61.902 70.7232 66.0814 66.5412C70.2608 62.3591 72.5363 56.8295 72.5363 50.9281C72.5363 45.6773 68.264 41.4023 63.0165 41.4023ZM62.3199 62.7309C59.1621 65.8906 54.9827 67.6099 50.4783 67.6099C48.1564 67.6099 46.2988 65.7048 46.2988 63.4279V50.8817C46.2988 48.5583 48.2028 46.6996 50.4783 46.6996H63.0165C65.3384 46.6996 67.1959 48.6048 67.1959 50.8817C67.1959 55.3426 65.4777 59.5711 62.3199 62.7309Z" fill="#3A3A3A"/>
<path d="M15.8347 0.510742C7.15086 0.510742 0.0922852 7.57378 0.0922852 16.2632C0.0922852 24.9526 7.15086 32.0156 15.8347 32.0156C24.5186 32.0156 31.5772 24.9526 31.5772 16.2632C31.5772 7.57378 24.5186 0.510742 15.8347 0.510742ZM15.8347 26.6719C10.0764 26.6719 5.43265 21.9787 5.43265 16.2632C5.43265 10.5477 10.1229 5.85449 15.8347 5.85449C21.5466 5.85449 26.2368 10.5477 26.2368 16.2632C26.2368 21.9787 21.5466 26.6719 15.8347 26.6719Z" fill="#3A3A3A"/>
<path d="M43.1411 18.9122H54.1004V29.8785C54.1004 31.3655 55.3078 32.5271 56.7474 32.5271C58.187 32.5271 59.3944 31.319 59.3944 29.8785V18.9122H70.3537C71.8397 18.9122 73.0007 17.7041 73.0007 16.2636C73.0007 14.8231 71.7933 13.6149 70.3537 13.6149H59.3944V2.64864C59.3944 1.16168 58.187 0 56.7474 0C55.3078 0 54.1004 1.20815 54.1004 2.64864V13.6149H43.1411C41.6551 13.6149 40.4941 14.8231 40.4941 16.2636C40.4941 17.7041 41.7015 18.9122 43.1411 18.9122Z" fill="#3A3A3A"/>
</svg>
