<svg width="70" height="59" viewBox="0 0 70 59" fill="none" xmlns="http://www.w3.org/2000/svg">
<path fill-rule="evenodd" clip-rule="evenodd" d="M0.735703 27.9866C0.957352 26.1392 1.43758 24.6849 2.5458 23.4663C3.65403 22.2871 5.09473 21.7761 6.79402 21.501C8.45636 21.2651 10.562 21.2652 13.2218 21.2652H14.8471V13.9147C14.8471 6.24986 20.7208 0 27.9243 0H56.9229C64.1264 0 70 6.24986 70 13.9147V34.5902C70 42.2944 64.1264 48.505 56.9229 48.505H48.4634C48.0571 50.8634 48.5373 53.4184 49.7194 55.0299L49.9411 55.3443H55.5192C56.5904 55.3443 57.477 55.6981 57.477 56.838C57.477 57.9779 56.5904 58.9213 55.5192 58.9213H29.3649C28.2567 58.9213 27.4071 58.0173 27.4071 56.838C27.4071 55.6588 28.2567 55.3443 29.3649 55.3443H34.9061L35.1277 55.0299C36.3099 53.379 36.7901 50.8634 36.3837 48.505H27.9243C27.2963 48.505 26.6683 48.4656 26.0772 48.3477C26.0772 49.8414 26.0033 51.1778 25.8556 52.2784C25.6339 54.1258 25.1537 55.5803 24.0085 56.7988C22.9003 57.978 21.4965 58.489 19.7972 58.7642C18.1349 59 16.0293 59 13.3695 59H13.1848C10.5251 59 8.41943 59 6.75708 58.7642C5.0578 58.5283 3.65405 57.978 2.50888 56.7988C1.40065 55.6196 0.920403 54.1258 0.698753 52.2784C0.477112 50.5096 0.477119 48.2691 0.477119 45.4783V34.7475C0.477119 31.9174 0.477112 29.7161 0.698753 27.9473L0.735703 27.9866ZM13.2587 23.8987C11.9288 23.8987 10.7836 23.8987 9.78624 23.8987C9.93401 24.6062 10.0079 25.078 10.0818 25.471C10.2295 25.9427 10.3034 26.0999 10.4142 26.1785C10.5251 26.2572 10.6728 26.3751 11.1161 26.4144C11.5963 26.4537 12.2243 26.4929 13.2587 26.4929C13.9236 26.4929 14.4039 26.4929 14.8102 26.4929C15.0688 26.4929 15.2535 26.493 15.4382 26.4537C15.8815 26.4144 16.0293 26.2965 16.1031 26.2179C16.177 26.1393 16.3248 25.982 16.4356 25.5103C16.5464 25.1172 16.6203 24.6062 16.7311 23.938C16.1401 23.938 15.5121 23.938 14.8102 23.938H13.2587V23.8987ZM39.7084 54.8727H44.6954V48.5443H39.7084V54.8727ZM56.9229 44.3778C61.9838 44.3778 66.0843 40.0539 66.0843 34.6295V13.954C66.0843 8.5689 62.0207 4.20589 56.9229 4.20589H27.9243C22.8633 4.20589 18.7629 8.52959 18.7629 13.954V21.4224C19.1323 21.4224 19.4648 21.4617 19.7972 21.5403C21.4965 21.7762 22.9003 22.3265 24.0085 23.5057C25.1167 24.6849 25.597 26.1786 25.8556 28.026C26.0772 29.7948 26.0772 31.9959 26.0772 34.826V44.2205C26.6683 44.3777 27.2963 44.417 27.9243 44.417H56.9229V44.3778ZM2.98911 45.3997C2.98911 48.3084 2.98911 50.3917 3.17382 51.964C3.39546 53.4577 3.72792 54.3225 4.28203 54.9514C4.83614 55.5803 5.6858 55.934 7.08955 56.1305C8.56719 56.3664 10.4881 56.3664 13.2218 56.3664C15.9554 56.3664 17.9132 56.3664 19.3909 56.1305C20.8316 55.934 21.6073 55.541 22.1984 54.9514C22.7895 54.3618 23.1219 53.4577 23.3066 51.964C23.4544 50.8634 23.5283 49.4876 23.5283 47.7581V34.8654C23.5283 31.9567 23.5283 29.8734 23.3066 28.3012C23.1219 26.7682 22.7525 25.9427 22.1984 25.3138C21.6073 24.6849 20.8316 24.331 19.3909 24.1345C19.317 24.1345 19.2431 24.1345 19.1692 24.1345C19.0215 24.9599 18.9476 25.7069 18.7629 26.2965C18.7629 26.3751 18.726 26.493 18.689 26.5716C18.5043 27.1612 18.2088 27.7116 17.7286 28.1832C17.1375 28.7335 16.4726 29.0086 15.7337 29.0872C15.4382 29.0872 15.1057 29.1266 14.7733 29.1266C14.293 29.1266 13.8128 29.1266 13.2218 29.1266C12.2613 29.1266 11.4116 29.1265 10.7467 29.0479C10.0079 28.93 9.34295 28.6942 8.7519 28.1439C8.16084 27.6329 7.90225 26.9646 7.68061 26.2571C7.53284 25.6282 7.38508 24.9207 7.27425 24.0953C7.23731 24.0953 7.12649 24.0953 7.08955 24.0953C5.64886 24.2918 4.83614 24.6848 4.28203 25.2744C3.69098 25.9034 3.35853 26.7288 3.17382 28.2618C2.98911 29.8341 2.98911 31.9173 2.98911 34.826V45.3604V45.3997Z" fill="#3A3A3A"/>
<path fill-rule="evenodd" clip-rule="evenodd" d="M11.6333 51.0994H14.9211C15.586 51.0994 16.1401 51.6889 16.1401 52.3964C16.1401 53.104 15.586 53.6936 14.9211 53.6936H11.6333C10.9684 53.6936 10.4143 53.104 10.4143 52.3964C10.4143 51.6889 10.9684 51.0994 11.6333 51.0994Z" fill="#3A3A3A"/>
</svg>
