<svg width="73" height="73" viewBox="0 0 73 73" fill="none" xmlns="http://www.w3.org/2000/svg">
<path fill-rule="evenodd" clip-rule="evenodd" d="M69.2956 27.4922C67.2501 25.447 64.6768 24.5705 61.6228 24.1605C60.0062 23.9438 58.154 23.8448 56.0378 23.8024C56.019 19.9712 55.9294 16.7856 55.5712 14.142C55.1329 10.8857 54.2516 8.17604 52.3805 5.89523C51.7066 5.07998 50.9619 4.33071 50.1418 3.66155C47.7335 1.68704 44.8538 0.815248 41.3521 0.405268C37.9445 0 33.6321 0 28.1886 0H27.854C22.4151 0 18.1027 0 14.6905 0.405268C11.1887 0.81996 8.30904 1.68704 5.90069 3.66155C5.08062 4.33071 4.33596 5.07998 3.662 5.89523C1.68724 8.30327 0.820059 11.1826 0.405313 14.6839C-6.91059e-06 18.0957 0 22.4028 0 27.8457V28.1755C0 33.6136 -6.91059e-06 37.9255 0.405313 41.3373C0.820059 44.8386 1.68724 47.7179 3.662 50.1259C4.33596 50.9459 5.08062 51.6905 5.90069 52.3643C8.18179 54.2352 10.8871 55.1164 14.1438 55.5546C16.7878 55.9128 19.9738 55.9976 23.8055 56.0212C23.8479 58.1323 23.9469 59.989 24.1637 61.6007C24.5737 64.6543 25.4503 67.232 27.4958 69.2725C29.5412 71.3177 32.1145 72.1942 35.1686 72.6042C38.1142 73 41.8563 73 46.4987 73H50.2691C54.9114 73 58.6583 73 61.5992 72.6042C64.6532 72.1942 67.2313 71.3177 69.272 69.2725C71.3175 67.2273 72.1941 64.6543 72.6041 61.6007C73 58.6554 73 54.9138 73 50.272V46.5021C73 41.8604 73 38.114 72.6041 35.1735C72.1941 32.1198 71.3175 29.5468 69.272 27.5016L69.2956 27.4922ZM24.1825 35.164C23.7866 38.1093 23.7866 41.8509 23.7866 46.4927V50.9176C20.0162 50.8941 17.146 50.8092 14.8413 50.4982C12.0983 50.1259 10.4252 49.4709 9.14325 48.4153C8.58711 47.9582 8.0734 47.4446 7.61623 46.8885C6.50867 45.5361 5.83472 43.75 5.47653 40.7341C5.11363 37.6569 5.1089 33.6466 5.1089 28.0059C5.1089 22.3651 5.10892 18.3549 5.47653 15.2776C5.83472 12.257 6.50867 10.471 7.61623 9.12323C8.0734 8.56246 8.58711 8.05352 9.14325 7.5917C10.4959 6.48428 12.2821 5.81041 15.2985 5.45697C18.3761 5.09412 22.3868 5.08941 28.0283 5.08941C33.6698 5.08941 37.6806 5.08941 40.7582 5.45697C43.7746 5.81512 45.5608 6.48899 46.9134 7.5917C47.4696 8.0488 47.9833 8.56246 48.4404 9.12323C49.4914 10.405 50.1513 12.0779 50.5236 14.8205C50.8346 17.1249 50.9195 19.9948 50.9431 23.7647H46.5175C41.8752 23.7647 38.1283 23.7647 35.1874 24.1605C32.1334 24.5705 29.5554 25.4517 27.5146 27.4922C25.4692 29.5374 24.5926 32.1104 24.1825 35.164ZM67.9288 50.0741C67.9288 54.9467 67.9241 58.3491 67.58 60.9127C67.2454 63.4055 66.6327 64.7203 65.6901 65.6628C64.7475 66.6053 63.4326 67.2132 60.9394 67.5525C58.3755 67.8965 54.9727 67.9012 50.0994 67.9012H46.7061C41.8328 67.9012 38.43 67.8965 35.8661 67.5525C33.3729 67.2179 32.058 66.6053 31.1154 65.6628C30.1728 64.7203 29.5648 63.4055 29.2254 60.9127C28.8814 58.3491 28.8767 54.9467 28.8767 50.0741V46.6812C28.8767 41.8085 28.8814 38.4062 29.2254 35.8426C29.5601 33.3498 30.1728 32.0303 31.1154 31.0925C32.058 30.1547 33.3729 29.5421 35.8661 29.2028C38.43 28.8588 41.8328 28.8541 46.7061 28.8541H50.0994C54.9727 28.8541 58.3755 28.8588 60.9394 29.2028C63.4326 29.5374 64.7475 30.15 65.6901 31.0925C66.6327 32.0303 67.2407 33.3498 67.58 35.8426C67.9241 38.4062 67.9288 41.8085 67.9288 46.6812V50.0741Z" fill="#3A3A3A"/>
</svg>
