<svg width="56" height="59" viewBox="0 0 56 59" fill="none" xmlns="http://www.w3.org/2000/svg">
<path fill-rule="evenodd" clip-rule="evenodd" d="M53.4026 30.0254C52.2386 30.0254 51.2862 31.0388 51.251 32.2774C51.251 37.8321 51.1804 41.848 50.6866 44.9256C50.2281 47.9281 49.4168 49.8046 48.1117 51.1933C46.7008 52.6946 44.7961 53.5579 41.5158 54.0458C38.2001 54.5337 33.8616 54.5337 27.7595 54.5337C21.6573 54.5337 17.3188 54.5337 14.0032 54.0458C10.7581 53.5954 8.8534 52.6946 7.40722 51.1933C5.99632 49.692 5.18506 47.6653 4.72652 44.1749C4.26798 40.6469 4.26797 36.0305 4.26797 29.5375C4.26797 23.0445 4.26798 18.4281 4.72652 14.9001C5.14979 11.4472 5.99632 9.38297 7.40722 7.8817C8.71231 6.49302 10.4759 5.62975 13.2977 5.14184C16.1901 4.65393 19.9642 4.57885 25.1846 4.54132C26.3486 4.54132 27.3009 3.52801 27.3009 2.25193C27.3009 1.01338 26.3486 0 25.1493 0C19.9995 0 15.8726 0.0749994 12.5923 0.637977C9.2414 1.20095 6.52541 2.32694 4.37379 4.65391C2.0458 7.13101 0.987629 10.2837 0.493813 14.262C-2.15497e-06 18.1278 0 23.0446 0 29.3499V29.6877C0 35.9555 -2.15497e-06 40.9096 0.493813 44.7378C0.987629 48.6787 2.0458 51.8689 4.37379 54.346C6.70177 56.8231 9.66467 57.9491 13.4036 58.4745C17.0366 58.9999 21.6573 59 27.5478 59H27.8653C33.7558 59 38.4118 58.9999 42.0448 58.4745C45.7837 57.9491 48.7466 56.8231 51.0746 54.346C53.2262 52.0565 54.2844 49.1666 54.8488 45.6011C55.3779 42.1107 55.4484 37.7194 55.4484 32.2398C55.4484 31.0013 54.496 29.9878 53.3321 29.9503L53.4026 30.0254Z" fill="#3A3A3A"/>
<path fill-rule="evenodd" clip-rule="evenodd" d="M55.449 12.7607C55.3784 10.2086 55.2021 7.01833 54.8493 4.87902C54.673 3.90319 54.285 3.00242 53.6501 2.28931C52.9446 1.50115 52.0275 0.975724 51.0046 0.788065C48.9941 0.412747 45.9959 0.225037 43.5974 0.149974C42.3629 0.112442 41.2694 0.0749512 40.4582 0.0749512C40.0702 0.0749512 39.7174 0.0749512 39.5058 0.0749512H39.1531C37.9891 0.0749512 37.0367 1.08833 37.0367 2.32688C37.0367 3.56543 37.9891 4.57881 39.1531 4.57881H39.4705C39.6822 4.57881 39.9996 4.57881 40.3876 4.57881C41.1636 4.57881 42.257 4.57877 43.421 4.65384C44.9378 4.69137 46.5603 4.80399 47.9712 4.91659L23.4215 30.9261C22.575 31.8269 22.575 33.2531 23.4215 34.1539C24.2681 35.0547 25.6084 35.0547 26.455 34.1539L50.9341 8.2194C51.0399 9.68314 51.1105 11.3345 51.181 12.8357C51.2163 14.1118 51.2516 15.2378 51.2516 16.0635C51.2516 16.4764 51.2516 16.8141 51.2516 17.0393V17.3772C51.2516 18.6533 52.2039 19.6666 53.3679 19.6666C54.5319 19.6666 55.4843 18.6533 55.4843 17.3772V17.0018C55.4843 16.7766 55.4843 16.4012 55.4843 15.9884C55.4843 15.1252 55.4843 13.9617 55.4137 12.6481L55.449 12.7607Z" fill="#3A3A3A"/>
</svg>
